<svg xmlns="http://www.w3.org/2000/svg" xmlns:xlink="http://www.w3.org/1999/xlink" width="250" zoomAndPan="magnify" viewBox="0 0 187.5 38.999999" height="52" preserveAspectRatio="xMidYMid meet" version="1.0"><defs><g/><clipPath id="f4fb3139de"><path d="M 8.464844 0.0507812 L 47.363281 0.0507812 L 47.363281 38.945312 L 8.464844 38.945312 Z M 8.464844 0.0507812 " clip-rule="nonzero"/></clipPath><clipPath id="27ede6a349"><path d="M 27.914062 0.0507812 C 17.171875 0.0507812 8.464844 8.757812 8.464844 19.5 C 8.464844 30.242188 17.171875 38.949219 27.914062 38.949219 C 38.652344 38.949219 47.363281 30.242188 47.363281 19.5 C 47.363281 8.757812 38.652344 0.0507812 27.914062 0.0507812 Z M 27.914062 0.0507812 " clip-rule="nonzero"/></clipPath><clipPath id="a404eb74a0"><path d="M 15 0.0507812 L 37 0.0507812 L 37 24 L 15 24 Z M 15 0.0507812 " clip-rule="nonzero"/></clipPath><clipPath id="f7b2cc2289"><path d="M 8.464844 4 L 23 4 L 23 38 L 8.464844 38 Z M 8.464844 4 " clip-rule="nonzero"/></clipPath><clipPath id="e503a1734c"><path d="M 23.796875 12.160156 L 47.011719 12.160156 L 47.011719 38.597656 L 23.796875 38.597656 Z M 23.796875 12.160156 " clip-rule="nonzero"/></clipPath></defs><g clip-path="url(#f4fb3139de)"><g clip-path="url(#27ede6a349)"><path fill="#ffffff" d="M 8.464844 0.0507812 L 47.363281 0.0507812 L 47.363281 38.949219 L 8.464844 38.949219 Z M 8.464844 0.0507812 " fill-opacity="1" fill-rule="nonzero"/></g></g><g clip-path="url(#a404eb74a0)"><path fill="#c82f83" d="M 22.5625 23.59375 C 24.90625 15.25 29.570312 8.148438 36.128906 1.871094 C 33.632812 0.707031 30.84375 0.0507812 27.90625 0.0507812 C 23.023438 0.0507812 18.558594 1.855469 15.140625 4.832031 C 15.304688 12.078125 17.257812 18.074219 22.5625 23.59375 " fill-opacity="1" fill-rule="evenodd"/></g><g clip-path="url(#f7b2cc2289)"><path fill="#fbc219" d="M 22.003906 25.808594 C 16.574219 19.570312 14.59375 12.632812 15.039062 4.917969 C 11.011719 8.484375 8.464844 13.691406 8.464844 19.496094 C 8.464844 27.742188 13.597656 34.789062 20.84375 37.617188 C 20.769531 33.421875 21.167969 29.496094 22.003906 25.808594 " fill-opacity="1" fill-rule="evenodd"/></g><path fill="#9f1581" d="M 36.152344 1.882812 C 31.507812 7.167969 28.054688 12.882812 26.015625 19.203125 C 31.921875 14.257812 38.519531 12.078125 45.824219 11.929688 C 43.953125 7.507812 40.492188 3.917969 36.152344 1.882812 " fill-opacity="1" fill-rule="evenodd"/><g clip-path="url(#e503a1734c)"><path fill="#ea7ab7" d="M 45.9375 12.203125 C 38.101562 13.140625 30.746094 16.835938 24.949219 23.136719 C 23.890625 27.917969 23.597656 33.042969 24.160156 38.578125 C 25.371094 38.820312 26.628906 38.941406 27.90625 38.941406 C 38.644531 38.941406 47.351562 30.230469 47.351562 19.496094 C 47.351562 16.917969 46.851562 14.457031 45.9375 12.203125 " fill-opacity="1" fill-rule="evenodd"/></g><g fill="#545454" fill-opacity="1"><g transform="translate(76.773119, 33.753226)"><g><path d="M 4.84375 -4.203125 L 4.84375 -2.828125 C 4.84375 -2.484375 4.785156 -2.191406 4.671875 -1.953125 C 4.554688 -1.722656 4.363281 -1.546875 4.09375 -1.421875 C 3.820312 -1.304688 3.453125 -1.25 2.984375 -1.25 L 2.984375 0 L 2.171875 0 L 2.171875 -1.25 C 1.691406 -1.25 1.316406 -1.304688 1.046875 -1.421875 C 0.773438 -1.546875 0.582031 -1.722656 0.46875 -1.953125 C 0.363281 -2.191406 0.3125 -2.476562 0.3125 -2.8125 L 0.3125 -4.203125 L 1.15625 -4.203125 L 1.15625 -2.828125 C 1.15625 -2.597656 1.191406 -2.421875 1.265625 -2.296875 C 1.335938 -2.171875 1.445312 -2.082031 1.59375 -2.03125 C 1.75 -1.988281 1.941406 -1.96875 2.171875 -1.96875 L 2.171875 -4.203125 L 2.984375 -4.203125 L 2.984375 -1.96875 C 3.191406 -1.96875 3.375 -1.988281 3.53125 -2.03125 C 3.6875 -2.082031 3.804688 -2.164062 3.890625 -2.28125 C 3.972656 -2.40625 4.015625 -2.582031 4.015625 -2.8125 L 4.015625 -4.203125 Z M 4.84375 -4.203125 "/></g></g></g><g fill="#545454" fill-opacity="1"><g transform="translate(84.315686, 33.753226)"><g><path d="M 1.84375 -2.46875 L 2.71875 -4.203125 L 3.671875 -4.203125 L 2.28125 -1.640625 L 2.28125 0 L 1.390625 0 L 1.390625 -1.609375 L 0 -4.203125 L 0.96875 -4.203125 Z M 1.84375 -2.46875 "/></g></g></g><g fill="#545454" fill-opacity="1"><g transform="translate(90.37358, 33.753226)"><g><path d="M 3.921875 0 L 2.90625 0 L 1.9375 -1.59375 L 0.953125 0 L 0 0 L 1.390625 -2.171875 L 0.09375 -4.203125 L 1.078125 -4.203125 L 1.984375 -2.6875 L 2.875 -4.203125 L 3.828125 -4.203125 L 2.515625 -2.125 Z M 3.921875 0 "/></g></g></g><g fill="#545454" fill-opacity="1"><g transform="translate(96.684809, 33.753226)"><g><path d="M 4.34375 -2.109375 C 4.34375 -1.671875 4.269531 -1.289062 4.125 -0.96875 C 3.988281 -0.644531 3.769531 -0.390625 3.46875 -0.203125 C 3.175781 -0.0234375 2.800781 0.0625 2.34375 0.0625 C 1.882812 0.0625 1.503906 -0.0234375 1.203125 -0.203125 C 0.910156 -0.390625 0.691406 -0.644531 0.546875 -0.96875 C 0.410156 -1.289062 0.34375 -1.671875 0.34375 -2.109375 C 0.34375 -2.546875 0.410156 -2.925781 0.546875 -3.25 C 0.691406 -3.570312 0.910156 -3.820312 1.203125 -4 C 1.503906 -4.175781 1.882812 -4.265625 2.34375 -4.265625 C 2.800781 -4.265625 3.175781 -4.175781 3.46875 -4 C 3.769531 -3.820312 3.988281 -3.570312 4.125 -3.25 C 4.269531 -2.925781 4.34375 -2.546875 4.34375 -2.109375 Z M 1.28125 -2.109375 C 1.28125 -1.671875 1.363281 -1.320312 1.53125 -1.0625 C 1.695312 -0.8125 1.96875 -0.6875 2.34375 -0.6875 C 2.726562 -0.6875 3 -0.8125 3.15625 -1.0625 C 3.320312 -1.320312 3.40625 -1.671875 3.40625 -2.109375 C 3.40625 -2.546875 3.320312 -2.890625 3.15625 -3.140625 C 3 -3.398438 2.726562 -3.53125 2.34375 -3.53125 C 1.96875 -3.53125 1.695312 -3.398438 1.53125 -3.140625 C 1.363281 -2.890625 1.28125 -2.546875 1.28125 -2.109375 Z M 1.28125 -2.109375 "/></g></g></g><g fill="#545454" fill-opacity="1"><g transform="translate(103.756048, 33.753226)"><g><path d="M 2.390625 -4.203125 L 3.828125 0 L 2.921875 0 L 2.140625 -2.53125 C 2.128906 -2.582031 2.109375 -2.664062 2.078125 -2.78125 C 2.046875 -2.90625 2.015625 -3.03125 1.984375 -3.15625 C 1.953125 -3.28125 1.929688 -3.378906 1.921875 -3.453125 C 1.898438 -3.367188 1.875 -3.265625 1.84375 -3.140625 C 1.820312 -3.015625 1.796875 -2.894531 1.765625 -2.78125 C 1.734375 -2.664062 1.710938 -2.578125 1.703125 -2.515625 L 0.90625 0 L 0 0 L 1.421875 -4.203125 Z M 2.390625 -4.203125 "/></g></g></g><g fill="#545454" fill-opacity="1"><g transform="translate(109.967122, 33.753226)"><g><path d="M 4.34375 -2.109375 C 4.34375 -1.671875 4.269531 -1.289062 4.125 -0.96875 C 3.988281 -0.644531 3.769531 -0.390625 3.46875 -0.203125 C 3.175781 -0.0234375 2.800781 0.0625 2.34375 0.0625 C 1.882812 0.0625 1.503906 -0.0234375 1.203125 -0.203125 C 0.910156 -0.390625 0.691406 -0.644531 0.546875 -0.96875 C 0.410156 -1.289062 0.34375 -1.671875 0.34375 -2.109375 C 0.34375 -2.546875 0.410156 -2.925781 0.546875 -3.25 C 0.691406 -3.570312 0.910156 -3.820312 1.203125 -4 C 1.503906 -4.175781 1.882812 -4.265625 2.34375 -4.265625 C 2.800781 -4.265625 3.175781 -4.175781 3.46875 -4 C 3.769531 -3.820312 3.988281 -3.570312 4.125 -3.25 C 4.269531 -2.925781 4.34375 -2.546875 4.34375 -2.109375 Z M 1.28125 -2.109375 C 1.28125 -1.671875 1.363281 -1.320312 1.53125 -1.0625 C 1.695312 -0.8125 1.96875 -0.6875 2.34375 -0.6875 C 2.726562 -0.6875 3 -0.8125 3.15625 -1.0625 C 3.320312 -1.320312 3.40625 -1.671875 3.40625 -2.109375 C 3.40625 -2.546875 3.320312 -2.890625 3.15625 -3.140625 C 3 -3.398438 2.726562 -3.53125 2.34375 -3.53125 C 1.96875 -3.53125 1.695312 -3.398438 1.53125 -3.140625 C 1.363281 -2.890625 1.28125 -2.546875 1.28125 -2.109375 Z M 1.28125 -2.109375 "/></g></g></g><g fill="#545454" fill-opacity="1"><g transform="translate(117.038361, 33.753226)"><g><path d="M 3.1875 -4.203125 L 3.1875 -3.46875 L 1.421875 -3.46875 L 1.421875 0 L 0.53125 0 L 0.53125 -4.203125 Z M 3.1875 -4.203125 "/></g></g></g><g fill="#545454" fill-opacity="1"><g transform="translate(122.725082, 33.753226)"><g><path d="M 4.34375 -2.109375 C 4.34375 -1.671875 4.269531 -1.289062 4.125 -0.96875 C 3.988281 -0.644531 3.769531 -0.390625 3.46875 -0.203125 C 3.175781 -0.0234375 2.800781 0.0625 2.34375 0.0625 C 1.882812 0.0625 1.503906 -0.0234375 1.203125 -0.203125 C 0.910156 -0.390625 0.691406 -0.644531 0.546875 -0.96875 C 0.410156 -1.289062 0.34375 -1.671875 0.34375 -2.109375 C 0.34375 -2.546875 0.410156 -2.925781 0.546875 -3.25 C 0.691406 -3.570312 0.910156 -3.820312 1.203125 -4 C 1.503906 -4.175781 1.882812 -4.265625 2.34375 -4.265625 C 2.800781 -4.265625 3.175781 -4.175781 3.46875 -4 C 3.769531 -3.820312 3.988281 -3.570312 4.125 -3.25 C 4.269531 -2.925781 4.34375 -2.546875 4.34375 -2.109375 Z M 1.28125 -2.109375 C 1.28125 -1.671875 1.363281 -1.320312 1.53125 -1.0625 C 1.695312 -0.8125 1.96875 -0.6875 2.34375 -0.6875 C 2.726562 -0.6875 3 -0.8125 3.15625 -1.0625 C 3.320312 -1.320312 3.40625 -1.671875 3.40625 -2.109375 C 3.40625 -2.546875 3.320312 -2.890625 3.15625 -3.140625 C 3 -3.398438 2.726562 -3.53125 2.34375 -3.53125 C 1.96875 -3.53125 1.695312 -3.398438 1.53125 -3.140625 C 1.363281 -2.890625 1.28125 -2.546875 1.28125 -2.109375 Z M 1.28125 -2.109375 "/></g></g></g><g fill="#545454" fill-opacity="1"><g transform="translate(129.796321, 33.753226)"><g><path d="M 0.21875 0 L 0.21875 -0.703125 L 1.578125 -2.203125 L 0.265625 -3.515625 L 0.265625 -4.203125 L 3.125 -4.203125 L 3.125 -3.46875 L 1.859375 -3.46875 C 1.742188 -3.46875 1.632812 -3.46875 1.53125 -3.46875 C 1.425781 -3.476562 1.316406 -3.488281 1.203125 -3.5 L 2.515625 -2.203125 L 1.140625 -0.703125 C 1.410156 -0.722656 1.679688 -0.734375 1.953125 -0.734375 L 3.296875 -0.734375 L 3.296875 0 Z M 0.21875 0 "/></g></g></g><g fill="#545454" fill-opacity="1"><g transform="translate(135.671574, 33.753226)"><g/></g></g><g fill="#545454" fill-opacity="1"><g transform="translate(139.702767, 33.753226)"><g><path d="M 4.015625 -4.125 C 4.117188 -4.125 4.203125 -4.085938 4.265625 -4.015625 C 4.335938 -3.953125 4.375 -3.867188 4.375 -3.765625 L 4.375 -0.359375 C 4.375 -0.253906 4.34375 -0.164062 4.28125 -0.09375 C 4.21875 -0.03125 4.128906 0 4.015625 0 C 3.910156 0 3.820312 -0.03125 3.75 -0.09375 C 3.675781 -0.164062 3.640625 -0.253906 3.640625 -0.359375 L 3.640625 -2.734375 L 2.671875 -1.25 C 2.628906 -1.195312 2.582031 -1.15625 2.53125 -1.125 C 2.488281 -1.101562 2.4375 -1.09375 2.375 -1.09375 C 2.320312 -1.09375 2.269531 -1.101562 2.21875 -1.125 C 2.175781 -1.15625 2.132812 -1.195312 2.09375 -1.25 L 1.125 -2.78125 L 1.125 -0.359375 C 1.125 -0.253906 1.09375 -0.164062 1.03125 -0.09375 C 0.96875 -0.03125 0.882812 0 0.78125 0 C 0.675781 0 0.59375 -0.03125 0.53125 -0.09375 C 0.46875 -0.164062 0.4375 -0.253906 0.4375 -0.359375 L 0.4375 -3.765625 C 0.4375 -3.867188 0.472656 -3.953125 0.546875 -4.015625 C 0.617188 -4.085938 0.707031 -4.125 0.8125 -4.125 C 0.875 -4.125 0.929688 -4.109375 0.984375 -4.078125 C 1.046875 -4.054688 1.09375 -4.019531 1.125 -3.96875 L 2.40625 -2 L 3.734375 -3.96875 C 3.765625 -4.019531 3.804688 -4.054688 3.859375 -4.078125 C 3.910156 -4.109375 3.960938 -4.125 4.015625 -4.125 Z M 4.015625 -4.125 "/></g></g></g><g fill="#545454" fill-opacity="1"><g transform="translate(146.909511, 33.753226)"><g><path d="M 1.765625 0.0625 C 1.484375 0.0625 1.234375 0.0234375 1.015625 -0.046875 C 0.796875 -0.117188 0.585938 -0.238281 0.390625 -0.40625 C 0.285156 -0.5 0.234375 -0.601562 0.234375 -0.71875 C 0.234375 -0.8125 0.265625 -0.890625 0.328125 -0.953125 C 0.398438 -1.023438 0.484375 -1.0625 0.578125 -1.0625 C 0.648438 -1.0625 0.71875 -1.035156 0.78125 -0.984375 C 0.9375 -0.859375 1.085938 -0.765625 1.234375 -0.703125 C 1.378906 -0.648438 1.554688 -0.625 1.765625 -0.625 C 1.984375 -0.625 2.171875 -0.671875 2.328125 -0.765625 C 2.492188 -0.859375 2.578125 -0.976562 2.578125 -1.125 C 2.578125 -1.300781 2.5 -1.441406 2.34375 -1.546875 C 2.1875 -1.648438 1.9375 -1.722656 1.59375 -1.765625 C 0.726562 -1.898438 0.296875 -2.300781 0.296875 -2.96875 C 0.296875 -3.21875 0.359375 -3.429688 0.484375 -3.609375 C 0.617188 -3.796875 0.796875 -3.9375 1.015625 -4.03125 C 1.242188 -4.132812 1.492188 -4.1875 1.765625 -4.1875 C 2.015625 -4.1875 2.25 -4.144531 2.46875 -4.0625 C 2.6875 -3.988281 2.867188 -3.894531 3.015625 -3.78125 C 3.128906 -3.6875 3.1875 -3.582031 3.1875 -3.46875 C 3.1875 -3.375 3.148438 -3.289062 3.078125 -3.21875 C 3.015625 -3.15625 2.9375 -3.125 2.84375 -3.125 C 2.789062 -3.125 2.738281 -3.140625 2.6875 -3.171875 C 2.582031 -3.253906 2.4375 -3.328125 2.25 -3.390625 C 2.070312 -3.460938 1.910156 -3.5 1.765625 -3.5 C 1.523438 -3.5 1.335938 -3.453125 1.203125 -3.359375 C 1.066406 -3.273438 1 -3.15625 1 -3 C 1 -2.832031 1.066406 -2.703125 1.203125 -2.609375 C 1.335938 -2.523438 1.554688 -2.457031 1.859375 -2.40625 C 2.203125 -2.351562 2.472656 -2.28125 2.671875 -2.1875 C 2.867188 -2.09375 3.019531 -1.960938 3.125 -1.796875 C 3.226562 -1.640625 3.28125 -1.429688 3.28125 -1.171875 C 3.28125 -0.921875 3.207031 -0.703125 3.0625 -0.515625 C 2.925781 -0.328125 2.742188 -0.179688 2.515625 -0.078125 C 2.285156 0.015625 2.035156 0.0625 1.765625 0.0625 Z M 1.765625 0.0625 "/></g></g></g><g fill="#545454" fill-opacity="1"><g transform="translate(152.808331, 33.753226)"><g><path d="M 3.328125 -3.921875 C 3.453125 -3.859375 3.515625 -3.757812 3.515625 -3.625 C 3.515625 -3.539062 3.484375 -3.457031 3.421875 -3.375 C 3.359375 -3.289062 3.28125 -3.25 3.1875 -3.25 C 3.113281 -3.25 3.046875 -3.269531 2.984375 -3.3125 C 2.785156 -3.40625 2.578125 -3.453125 2.359375 -3.453125 C 2.078125 -3.453125 1.832031 -3.390625 1.625 -3.265625 C 1.425781 -3.148438 1.269531 -2.988281 1.15625 -2.78125 C 1.050781 -2.570312 1 -2.332031 1 -2.0625 C 1 -1.59375 1.125 -1.238281 1.375 -1 C 1.625 -0.757812 1.953125 -0.640625 2.359375 -0.640625 C 2.597656 -0.640625 2.804688 -0.6875 2.984375 -0.78125 C 3.054688 -0.8125 3.117188 -0.828125 3.171875 -0.828125 C 3.273438 -0.828125 3.359375 -0.785156 3.421875 -0.703125 C 3.484375 -0.628906 3.515625 -0.546875 3.515625 -0.453125 C 3.515625 -0.390625 3.5 -0.332031 3.46875 -0.28125 C 3.4375 -0.238281 3.390625 -0.203125 3.328125 -0.171875 C 3.023438 -0.015625 2.703125 0.0625 2.359375 0.0625 C 1.972656 0.0625 1.617188 -0.0195312 1.296875 -0.1875 C 0.972656 -0.351562 0.710938 -0.59375 0.515625 -0.90625 C 0.328125 -1.226562 0.234375 -1.613281 0.234375 -2.0625 C 0.234375 -2.457031 0.320312 -2.8125 0.5 -3.125 C 0.6875 -3.445312 0.941406 -3.695312 1.265625 -3.875 C 1.585938 -4.0625 1.953125 -4.15625 2.359375 -4.15625 C 2.703125 -4.15625 3.023438 -4.078125 3.328125 -3.921875 Z M 3.328125 -3.921875 "/></g></g></g><g fill="#9f1581" fill-opacity="1"><g transform="translate(52.687405, 19.435323)"><g><path d="M 0.75 -4.5 C 0.695312 -4.414062 0.625 -4.34375 0.53125 -4.28125 C 0.445312 -4.226562 0.363281 -4.191406 0.28125 -4.171875 C 0.207031 -4.160156 0.144531 -4.164062 0.09375 -4.1875 C 0.0507812 -4.207031 0.046875 -4.257812 0.078125 -4.34375 C 0.242188 -4.820312 0.476562 -5.269531 0.78125 -5.6875 C 1.09375 -6.101562 1.445312 -6.515625 1.84375 -6.921875 C 1.96875 -7.078125 2.109375 -7.238281 2.265625 -7.40625 C 2.429688 -7.570312 2.609375 -7.734375 2.796875 -7.890625 C 2.984375 -8.046875 3.1875 -8.175781 3.40625 -8.28125 C 3.632812 -8.394531 3.867188 -8.472656 4.109375 -8.515625 C 4.453125 -8.515625 4.691406 -8.414062 4.828125 -8.21875 C 4.972656 -8.03125 5.046875 -7.785156 5.046875 -7.484375 C 5.054688 -7.179688 5.015625 -6.851562 4.921875 -6.5 C 4.828125 -6.144531 4.71875 -5.800781 4.59375 -5.46875 C 4.46875 -5.132812 4.335938 -4.832031 4.203125 -4.5625 C 4.078125 -4.300781 3.992188 -4.117188 3.953125 -4.015625 C 3.867188 -3.859375 3.765625 -3.65625 3.640625 -3.40625 C 3.515625 -3.15625 3.410156 -2.894531 3.328125 -2.625 C 3.253906 -2.351562 3.21875 -2.082031 3.21875 -1.8125 C 3.21875 -1.550781 3.300781 -1.320312 3.46875 -1.125 C 3.550781 -1.070312 3.679688 -1.140625 3.859375 -1.328125 C 4.035156 -1.515625 4.21875 -1.734375 4.40625 -1.984375 C 4.601562 -2.234375 4.78125 -2.476562 4.9375 -2.71875 C 5.09375 -2.957031 5.191406 -3.117188 5.234375 -3.203125 C 6.210938 -4.742188 7.066406 -6.316406 7.796875 -7.921875 C 8.523438 -9.535156 9.175781 -11.234375 9.75 -13.015625 C 9.75 -13.054688 9.785156 -13.097656 9.859375 -13.140625 C 9.941406 -13.191406 10.023438 -13.226562 10.109375 -13.25 C 10.203125 -13.28125 10.273438 -13.273438 10.328125 -13.234375 C 10.390625 -13.203125 10.40625 -13.128906 10.375 -13.015625 C 10.132812 -12.015625 9.8125 -11.015625 9.40625 -10.015625 C 9.007812 -9.023438 8.625 -8.023438 8.25 -7.015625 C 7.882812 -6.015625 7.570312 -5 7.3125 -3.96875 C 7.0625 -2.9375 6.953125 -1.878906 6.984375 -0.796875 L 6.515625 -0.796875 C 7.003906 -1.035156 7.445312 -1.34375 7.84375 -1.71875 C 8.238281 -2.09375 8.601562 -2.488281 8.9375 -2.90625 C 9.414062 -3.375 9.828125 -3.878906 10.171875 -4.421875 C 10.523438 -4.960938 10.863281 -5.523438 11.1875 -6.109375 C 11.46875 -6.628906 11.738281 -7.164062 12 -7.71875 C 12.269531 -8.28125 12.515625 -8.847656 12.734375 -9.421875 C 12.960938 -9.992188 13.148438 -10.566406 13.296875 -11.140625 C 13.453125 -11.710938 13.550781 -12.273438 13.59375 -12.828125 C 13.675781 -12.921875 13.78125 -12.972656 13.90625 -12.984375 C 14.039062 -13.003906 14.144531 -13.015625 14.21875 -13.015625 C 13.90625 -12.203125 13.5625 -11.390625 13.1875 -10.578125 C 12.8125 -9.765625 12.460938 -8.914062 12.140625 -8.03125 C 11.898438 -7.550781 11.664062 -7.035156 11.4375 -6.484375 C 11.21875 -5.929688 11.019531 -5.375 10.84375 -4.8125 C 10.6875 -4.320312 10.566406 -3.863281 10.484375 -3.4375 C 10.410156 -3.019531 10.375 -2.566406 10.375 -2.078125 C 10.375 -1.921875 10.398438 -1.765625 10.453125 -1.609375 C 10.515625 -1.460938 10.601562 -1.332031 10.71875 -1.21875 C 10.832031 -1.101562 10.96875 -1.019531 11.125 -0.96875 C 11.28125 -0.925781 11.457031 -0.921875 11.65625 -0.953125 C 11.894531 -0.992188 12.125 -1.070312 12.34375 -1.1875 C 12.570312 -1.300781 12.785156 -1.429688 12.984375 -1.578125 C 13.179688 -1.734375 13.367188 -1.894531 13.546875 -2.0625 C 13.722656 -2.238281 13.898438 -2.40625 14.078125 -2.5625 C 14.390625 -2.875 14.710938 -3.226562 15.046875 -3.625 C 15.378906 -4.019531 15.6875 -4.4375 15.96875 -4.875 C 16.257812 -5.3125 16.519531 -5.753906 16.75 -6.203125 C 16.976562 -6.660156 17.15625 -7.109375 17.28125 -7.546875 C 17.320312 -7.617188 17.382812 -7.6875 17.46875 -7.75 C 17.5625 -7.8125 17.65625 -7.851562 17.75 -7.875 C 17.84375 -7.894531 17.921875 -7.890625 17.984375 -7.859375 C 18.054688 -7.828125 18.09375 -7.773438 18.09375 -7.703125 C 17.9375 -7.222656 17.734375 -6.75 17.484375 -6.28125 C 17.242188 -5.8125 16.960938 -5.375 16.640625 -4.96875 C 16.316406 -4.488281 15.957031 -3.988281 15.5625 -3.46875 C 15.175781 -2.957031 14.785156 -2.492188 14.390625 -2.078125 C 13.992188 -1.671875 13.5625 -1.316406 13.09375 -1.015625 C 12.625 -0.710938 12.144531 -0.484375 11.65625 -0.328125 C 11.5 -0.328125 11.320312 -0.328125 11.125 -0.328125 C 10.9375 -0.335938 10.753906 -0.363281 10.578125 -0.40625 C 10.398438 -0.457031 10.234375 -0.535156 10.078125 -0.640625 C 9.929688 -0.753906 9.820312 -0.914062 9.75 -1.125 C 9.65625 -1.28125 9.601562 -1.457031 9.59375 -1.65625 C 9.59375 -1.851562 9.609375 -2.054688 9.640625 -2.265625 C 9.671875 -2.484375 9.710938 -2.695312 9.765625 -2.90625 C 9.816406 -3.125 9.863281 -3.332031 9.90625 -3.53125 C 9.976562 -4.175781 10.117188 -4.78125 10.328125 -5.34375 C 10.535156 -5.914062 10.765625 -6.488281 11.015625 -7.0625 C 11.222656 -7.582031 11.429688 -8.085938 11.640625 -8.578125 C 11.859375 -9.078125 12.078125 -9.566406 12.296875 -10.046875 C 12.515625 -10.523438 12.734375 -11.003906 12.953125 -11.484375 C 13.179688 -11.972656 13.394531 -12.484375 13.59375 -13.015625 C 13.59375 -13.054688 13.625 -13.097656 13.6875 -13.140625 C 13.757812 -13.191406 13.832031 -13.234375 13.90625 -13.265625 C 13.976562 -13.304688 14.046875 -13.320312 14.109375 -13.3125 C 14.179688 -13.300781 14.21875 -13.253906 14.21875 -13.171875 C 14.21875 -12.523438 14.144531 -11.882812 14 -11.25 C 13.851562 -10.613281 13.65625 -9.984375 13.40625 -9.359375 C 13.164062 -8.734375 12.894531 -8.117188 12.59375 -7.515625 C 12.289062 -6.921875 11.976562 -6.34375 11.65625 -5.78125 C 11.332031 -5.25 11 -4.710938 10.65625 -4.171875 C 10.3125 -3.628906 9.9375 -3.109375 9.53125 -2.609375 C 9.132812 -2.117188 8.703125 -1.671875 8.234375 -1.265625 C 7.765625 -0.867188 7.242188 -0.554688 6.671875 -0.328125 C 6.585938 -0.328125 6.488281 -0.332031 6.375 -0.34375 C 6.257812 -0.351562 6.203125 -0.398438 6.203125 -0.484375 C 6.160156 -1.578125 6.269531 -2.644531 6.53125 -3.6875 C 6.789062 -4.726562 7.109375 -5.765625 7.484375 -6.796875 C 7.859375 -7.835938 8.257812 -8.867188 8.6875 -9.890625 C 9.113281 -10.921875 9.46875 -11.960938 9.75 -13.015625 L 10.375 -13.015625 C 9.800781 -11.304688 9.148438 -9.632812 8.421875 -8 C 7.691406 -6.363281 6.84375 -4.820312 5.875 -3.375 C 5.84375 -3.289062 5.753906 -3.132812 5.609375 -2.90625 C 5.472656 -2.6875 5.304688 -2.441406 5.109375 -2.171875 C 4.910156 -1.910156 4.6875 -1.648438 4.4375 -1.390625 C 4.195312 -1.128906 3.960938 -0.921875 3.734375 -0.765625 C 3.515625 -0.617188 3.304688 -0.546875 3.109375 -0.546875 C 2.921875 -0.546875 2.769531 -0.679688 2.65625 -0.953125 C 2.53125 -1.429688 2.53125 -1.90625 2.65625 -2.375 C 2.78125 -2.84375 2.945312 -3.300781 3.15625 -3.75 C 3.363281 -4.195312 3.578125 -4.640625 3.796875 -5.078125 C 4.023438 -5.523438 4.175781 -5.96875 4.25 -6.40625 C 4.34375 -6.664062 4.378906 -6.925781 4.359375 -7.1875 C 4.347656 -7.445312 4.265625 -7.617188 4.109375 -7.703125 C 3.984375 -7.773438 3.851562 -7.804688 3.71875 -7.796875 C 3.59375 -7.796875 3.460938 -7.765625 3.328125 -7.703125 C 3.203125 -7.640625 3.078125 -7.5625 2.953125 -7.46875 C 2.835938 -7.382812 2.738281 -7.300781 2.65625 -7.21875 C 2.34375 -6.8125 2.003906 -6.375 1.640625 -5.90625 C 1.285156 -5.445312 0.988281 -4.976562 0.75 -4.5 Z M 0.75 -4.5 "/></g></g></g><g fill="#9f1581" fill-opacity="1"><g transform="translate(68.926883, 19.435323)"><g><path d="M 5.90625 -6.4375 C 6.007812 -6.4375 6.078125 -6.414062 6.109375 -6.375 C 6.140625 -6.34375 6.132812 -6.300781 6.09375 -6.25 C 6.0625 -6.207031 6.015625 -6.164062 5.953125 -6.125 C 5.890625 -6.082031 5.832031 -6.0625 5.78125 -6.0625 C 5.65625 -6.101562 5.523438 -6.101562 5.390625 -6.0625 C 5.253906 -6.03125 5.113281 -5.976562 4.96875 -5.90625 C 4.832031 -5.832031 4.703125 -5.75 4.578125 -5.65625 C 4.453125 -5.5625 4.34375 -5.46875 4.25 -5.375 C 3.832031 -5.144531 3.445312 -4.863281 3.09375 -4.53125 C 2.75 -4.195312 2.429688 -3.851562 2.140625 -3.5 C 1.847656 -3.195312 1.566406 -2.890625 1.296875 -2.578125 C 1.035156 -2.273438 0.84375 -1.910156 0.71875 -1.484375 C 0.601562 -1.066406 0.648438 -0.75 0.859375 -0.53125 C 1.066406 -0.320312 1.375 -0.253906 1.78125 -0.328125 C 2.070312 -0.378906 2.359375 -0.476562 2.640625 -0.625 C 2.921875 -0.78125 3.1875 -0.957031 3.4375 -1.15625 C 3.695312 -1.351562 3.945312 -1.5625 4.1875 -1.78125 C 4.425781 -2.007812 4.644531 -2.222656 4.84375 -2.421875 C 5.144531 -2.847656 5.453125 -3.269531 5.765625 -3.6875 C 6.085938 -4.101562 6.363281 -4.546875 6.59375 -5.015625 C 6.59375 -5.046875 6.601562 -5.09375 6.625 -5.15625 C 6.644531 -5.21875 6.664062 -5.28125 6.6875 -5.34375 C 6.707031 -5.414062 6.710938 -5.476562 6.703125 -5.53125 C 6.703125 -5.582031 6.664062 -5.609375 6.59375 -5.609375 C 6.539062 -5.671875 6.441406 -5.679688 6.296875 -5.640625 C 6.160156 -5.609375 6.03125 -5.566406 5.90625 -5.515625 C 5.1875 -5.265625 4.507812 -4.945312 3.875 -4.5625 C 3.238281 -4.1875 2.617188 -3.789062 2.015625 -3.375 C 1.960938 -3.351562 1.894531 -3.34375 1.8125 -3.34375 C 1.738281 -3.34375 1.671875 -3.351562 1.609375 -3.375 C 1.554688 -3.394531 1.515625 -3.425781 1.484375 -3.46875 C 1.460938 -3.507812 1.484375 -3.5625 1.546875 -3.625 C 2.015625 -3.914062 2.507812 -4.207031 3.03125 -4.5 C 3.550781 -4.789062 4.078125 -5.082031 4.609375 -5.375 C 4.722656 -5.425781 4.890625 -5.507812 5.109375 -5.625 C 5.335938 -5.738281 5.582031 -5.835938 5.84375 -5.921875 C 6.101562 -6.003906 6.351562 -6.046875 6.59375 -6.046875 C 6.84375 -6.054688 7.046875 -5.988281 7.203125 -5.84375 C 7.285156 -5.695312 7.316406 -5.539062 7.296875 -5.375 C 7.273438 -5.207031 7.226562 -5.039062 7.15625 -4.875 C 7.09375 -4.707031 7.019531 -4.550781 6.9375 -4.40625 C 6.851562 -4.269531 6.785156 -4.160156 6.734375 -4.078125 C 6.441406 -3.609375 6.117188 -3.1875 5.765625 -2.8125 C 5.421875 -2.4375 5.070312 -2.078125 4.71875 -1.734375 C 4.507812 -1.554688 4.296875 -1.375 4.078125 -1.1875 C 3.859375 -1.007812 3.628906 -0.84375 3.390625 -0.6875 C 3.160156 -0.53125 2.921875 -0.398438 2.671875 -0.296875 C 2.429688 -0.191406 2.179688 -0.128906 1.921875 -0.109375 C 1.773438 -0.0664062 1.609375 -0.0390625 1.421875 -0.03125 C 1.242188 -0.0195312 1.066406 -0.03125 0.890625 -0.0625 C 0.710938 -0.09375 0.554688 -0.144531 0.421875 -0.21875 C 0.285156 -0.300781 0.1875 -0.414062 0.125 -0.5625 C 0.0078125 -0.851562 -0.00390625 -1.140625 0.078125 -1.421875 C 0.160156 -1.703125 0.296875 -1.960938 0.484375 -2.203125 C 0.722656 -2.617188 0.984375 -3 1.265625 -3.34375 C 1.554688 -3.695312 1.847656 -4.023438 2.140625 -4.328125 C 2.484375 -4.617188 2.832031 -4.90625 3.1875 -5.1875 C 3.550781 -5.476562 3.90625 -5.738281 4.25 -5.96875 C 4.476562 -6.09375 4.734375 -6.21875 5.015625 -6.34375 C 5.304688 -6.46875 5.601562 -6.5 5.90625 -6.4375 Z M 8.71875 -6.65625 C 8.75 -6.65625 8.785156 -6.632812 8.828125 -6.59375 C 8.867188 -6.550781 8.898438 -6.503906 8.921875 -6.453125 C 8.941406 -6.410156 8.945312 -6.382812 8.9375 -6.375 C 8.9375 -6.363281 8.898438 -6.382812 8.828125 -6.4375 C 8.890625 -6.382812 8.921875 -6.347656 8.921875 -6.328125 C 8.921875 -6.304688 8.890625 -6.265625 8.828125 -6.203125 C 8.773438 -6.203125 8.722656 -6.175781 8.671875 -6.125 C 8.628906 -6.070312 8.609375 -6.019531 8.609375 -5.96875 C 8.484375 -5.84375 8.363281 -5.722656 8.25 -5.609375 C 8.144531 -5.492188 8.023438 -5.375 7.890625 -5.25 C 7.546875 -4.90625 7.21875 -4.550781 6.90625 -4.1875 C 6.59375 -3.820312 6.289062 -3.4375 6 -3.03125 C 5.90625 -2.875 5.804688 -2.71875 5.703125 -2.5625 C 5.597656 -2.40625 5.492188 -2.238281 5.390625 -2.0625 C 5.285156 -1.894531 5.191406 -1.722656 5.109375 -1.546875 C 5.035156 -1.367188 4.984375 -1.195312 4.953125 -1.03125 L 4.953125 -0.921875 C 4.898438 -0.929688 4.863281 -0.945312 4.84375 -0.96875 C 4.78125 -1.007812 4.78125 -1.03125 4.84375 -1.03125 L 5.3125 -1.03125 C 5.539062 -1.09375 5.773438 -1.175781 6.015625 -1.28125 C 6.253906 -1.382812 6.492188 -1.492188 6.734375 -1.609375 C 6.765625 -1.640625 6.804688 -1.632812 6.859375 -1.59375 C 6.910156 -1.5625 6.953125 -1.515625 6.984375 -1.453125 C 7.023438 -1.398438 7.054688 -1.34375 7.078125 -1.28125 C 7.109375 -1.21875 7.101562 -1.171875 7.0625 -1.140625 C 6.914062 -1.046875 6.734375 -0.941406 6.515625 -0.828125 C 6.296875 -0.722656 6.070312 -0.644531 5.84375 -0.59375 C 5.625 -0.539062 5.40625 -0.53125 5.1875 -0.5625 C 4.976562 -0.59375 4.820312 -0.710938 4.71875 -0.921875 C 4.625 -1.085938 4.582031 -1.265625 4.59375 -1.453125 C 4.613281 -1.640625 4.660156 -1.816406 4.734375 -1.984375 C 4.804688 -2.160156 4.894531 -2.328125 5 -2.484375 C 5.113281 -2.640625 5.21875 -2.78125 5.3125 -2.90625 C 5.363281 -2.976562 5.472656 -3.132812 5.640625 -3.375 C 5.816406 -3.613281 6.015625 -3.882812 6.234375 -4.1875 C 6.460938 -4.488281 6.707031 -4.800781 6.96875 -5.125 C 7.226562 -5.457031 7.472656 -5.75 7.703125 -6 C 7.929688 -6.25 8.132812 -6.441406 8.3125 -6.578125 C 8.5 -6.710938 8.632812 -6.738281 8.71875 -6.65625 Z M 8.71875 -6.65625 "/></g></g></g><g fill="#9f1581" fill-opacity="1"><g transform="translate(76.690639, 19.435323)"><g><path d="M 4.390625 -6.1875 C 4.472656 -6.226562 4.5625 -6.242188 4.65625 -6.234375 C 4.75 -6.222656 4.820312 -6.195312 4.875 -6.15625 C 4.925781 -6.113281 4.945312 -6.066406 4.9375 -6.015625 C 4.925781 -5.960938 4.859375 -5.910156 4.734375 -5.859375 C 4.398438 -5.773438 4.101562 -5.597656 3.84375 -5.328125 C 3.59375 -5.066406 3.347656 -4.8125 3.109375 -4.5625 C 2.859375 -4.300781 2.585938 -3.992188 2.296875 -3.640625 C 2.003906 -3.285156 1.78125 -2.941406 1.625 -2.609375 C 1.59375 -2.441406 1.550781 -2.269531 1.5 -2.09375 C 1.445312 -1.914062 1.410156 -1.742188 1.390625 -1.578125 C 1.367188 -1.410156 1.367188 -1.242188 1.390625 -1.078125 C 1.421875 -0.921875 1.5 -0.78125 1.625 -0.65625 C 1.75 -0.53125 1.875 -0.453125 2 -0.421875 C 2.125 -0.390625 2.25 -0.390625 2.375 -0.421875 C 2.5 -0.453125 2.617188 -0.503906 2.734375 -0.578125 C 2.859375 -0.648438 2.984375 -0.734375 3.109375 -0.828125 C 3.679688 -1.222656 4.191406 -1.726562 4.640625 -2.34375 C 5.085938 -2.96875 5.390625 -3.648438 5.546875 -4.390625 C 5.546875 -4.640625 5.53125 -4.90625 5.5 -5.1875 C 5.46875 -5.476562 5.375 -5.703125 5.21875 -5.859375 C 5.132812 -5.953125 5.050781 -6.03125 4.96875 -6.09375 C 4.894531 -6.15625 4.816406 -6.1875 4.734375 -6.1875 C 4.554688 -6.15625 4.394531 -6.082031 4.25 -5.96875 C 4.113281 -5.851562 3.988281 -5.722656 3.875 -5.578125 C 3.757812 -5.441406 3.648438 -5.296875 3.546875 -5.140625 C 3.441406 -4.992188 3.347656 -4.859375 3.265625 -4.734375 C 2.941406 -4.234375 2.648438 -3.734375 2.390625 -3.234375 C 2.140625 -2.734375 1.882812 -2.195312 1.625 -1.625 C 1.0625 -0.5625 0.550781 0.519531 0.09375 1.625 C -0.363281 2.726562 -0.875 3.804688 -1.4375 4.859375 C -1.53125 5.035156 -1.640625 5.285156 -1.765625 5.609375 C -1.890625 5.929688 -2.035156 6.25 -2.203125 6.5625 C -2.367188 6.875 -2.566406 7.144531 -2.796875 7.375 C -3.035156 7.601562 -3.296875 7.691406 -3.578125 7.640625 C -3.703125 7.609375 -3.753906 7.5625 -3.734375 7.5 C -3.710938 7.445312 -3.660156 7.394531 -3.578125 7.34375 C -3.492188 7.289062 -3.398438 7.25 -3.296875 7.21875 C -3.191406 7.1875 -3.113281 7.171875 -3.0625 7.171875 C -3.238281 7.171875 -3.363281 7.1875 -3.4375 7.21875 C -3.507812 7.25 -3.5 7.234375 -3.40625 7.171875 C -3.320312 7.078125 -3.265625 7.015625 -3.234375 6.984375 C -3.210938 6.960938 -3.15625 6.910156 -3.0625 6.828125 C -3 6.671875 -2.925781 6.519531 -2.84375 6.375 C -2.757812 6.226562 -2.679688 6.109375 -2.609375 6.015625 C -2.441406 5.535156 -2.25 5.078125 -2.03125 4.640625 C -1.8125 4.203125 -1.613281 3.738281 -1.4375 3.25 C -0.96875 2.1875 -0.488281 1.125 0 0.0625 C 0.488281 -0.988281 0.976562 -2.046875 1.46875 -3.109375 C 1.644531 -3.390625 1.84375 -3.71875 2.0625 -4.09375 C 2.28125 -4.46875 2.523438 -4.828125 2.796875 -5.171875 C 3.078125 -5.523438 3.378906 -5.828125 3.703125 -6.078125 C 4.023438 -6.328125 4.367188 -6.472656 4.734375 -6.515625 C 5.054688 -6.597656 5.335938 -6.59375 5.578125 -6.5 C 5.828125 -6.40625 6.03125 -6.191406 6.1875 -5.859375 C 6.3125 -5.617188 6.367188 -5.359375 6.359375 -5.078125 C 6.359375 -4.796875 6.316406 -4.519531 6.234375 -4.25 C 6.160156 -3.976562 6.054688 -3.710938 5.921875 -3.453125 C 5.796875 -3.203125 5.671875 -2.976562 5.546875 -2.78125 C 5.210938 -2.28125 4.8125 -1.78125 4.34375 -1.28125 C 3.875 -0.789062 3.351562 -0.414062 2.78125 -0.15625 C 2.625 -0.0703125 2.4375 -0.015625 2.21875 0.015625 C 2.007812 0.046875 1.800781 0.0390625 1.59375 0 C 1.382812 -0.03125 1.195312 -0.113281 1.03125 -0.25 C 0.863281 -0.382812 0.738281 -0.578125 0.65625 -0.828125 C 0.582031 -1.066406 0.566406 -1.320312 0.609375 -1.59375 C 0.648438 -1.875 0.734375 -2.15625 0.859375 -2.4375 C 0.984375 -2.71875 1.128906 -3 1.296875 -3.28125 C 1.472656 -3.5625 1.640625 -3.816406 1.796875 -4.046875 C 1.960938 -4.253906 2.144531 -4.46875 2.34375 -4.6875 C 2.539062 -4.90625 2.75 -5.109375 2.96875 -5.296875 C 3.195312 -5.492188 3.429688 -5.671875 3.671875 -5.828125 C 3.910156 -5.984375 4.148438 -6.101562 4.390625 -6.1875 Z M 4.390625 -6.1875 "/></g></g></g><g fill="#9f1581" fill-opacity="1"><g transform="translate(83.216941, 19.435323)"><g><path d="M 3.21875 -5.375 C 3.1875 -5.300781 3.128906 -5.25 3.046875 -5.21875 C 2.960938 -5.195312 2.882812 -5.191406 2.8125 -5.203125 C 2.738281 -5.210938 2.679688 -5.242188 2.640625 -5.296875 C 2.609375 -5.347656 2.628906 -5.425781 2.703125 -5.53125 C 2.765625 -5.65625 2.847656 -5.785156 2.953125 -5.921875 C 3.066406 -6.066406 3.15625 -6.234375 3.21875 -6.421875 C 3.28125 -6.367188 3.347656 -6.335938 3.421875 -6.328125 C 3.503906 -6.316406 3.613281 -6.3125 3.75 -6.3125 C 3.488281 -5.976562 3.21875 -5.632812 2.9375 -5.28125 C 2.65625 -4.9375 2.378906 -4.578125 2.109375 -4.203125 C 1.847656 -3.835938 1.609375 -3.457031 1.390625 -3.0625 C 1.171875 -2.664062 0.992188 -2.257812 0.859375 -1.84375 C 0.828125 -1.75 0.785156 -1.609375 0.734375 -1.421875 C 0.679688 -1.242188 0.648438 -1.070312 0.640625 -0.90625 C 0.628906 -0.75 0.65625 -0.632812 0.71875 -0.5625 C 0.789062 -0.488281 0.925781 -0.519531 1.125 -0.65625 C 1.382812 -0.789062 1.632812 -0.953125 1.875 -1.140625 C 2.125 -1.328125 2.351562 -1.523438 2.5625 -1.734375 C 2.625 -1.796875 2.695312 -1.832031 2.78125 -1.84375 C 2.875 -1.863281 2.945312 -1.863281 3 -1.84375 C 3.050781 -1.832031 3.082031 -1.800781 3.09375 -1.75 C 3.101562 -1.695312 3.054688 -1.640625 2.953125 -1.578125 C 2.898438 -1.503906 2.796875 -1.394531 2.640625 -1.25 C 2.484375 -1.101562 2.296875 -0.945312 2.078125 -0.78125 C 1.867188 -0.625 1.644531 -0.476562 1.40625 -0.34375 C 1.164062 -0.207031 0.945312 -0.113281 0.75 -0.0625 C 0.550781 -0.0078125 0.382812 -0.0234375 0.25 -0.109375 C 0.125 -0.191406 0.0625 -0.375 0.0625 -0.65625 C 0.0625 -1.195312 0.175781 -1.734375 0.40625 -2.265625 C 0.632812 -2.804688 0.910156 -3.273438 1.234375 -3.671875 C 1.503906 -4.203125 1.820312 -4.695312 2.1875 -5.15625 C 2.550781 -5.625 2.894531 -6.09375 3.21875 -6.5625 C 3.25 -6.59375 3.296875 -6.613281 3.359375 -6.625 C 3.429688 -6.644531 3.5 -6.648438 3.5625 -6.640625 C 3.632812 -6.628906 3.691406 -6.609375 3.734375 -6.578125 C 3.773438 -6.546875 3.78125 -6.492188 3.75 -6.421875 C 3.664062 -6.234375 3.585938 -6.046875 3.515625 -5.859375 C 3.441406 -5.671875 3.34375 -5.507812 3.21875 -5.375 Z M 4.390625 -7.96875 C 4.347656 -7.945312 4.296875 -7.945312 4.234375 -7.96875 C 4.171875 -7.988281 4.113281 -8.015625 4.0625 -8.046875 C 4.007812 -8.085938 3.972656 -8.128906 3.953125 -8.171875 C 3.941406 -8.210938 3.957031 -8.242188 4 -8.265625 C 4.019531 -8.316406 4.050781 -8.335938 4.09375 -8.328125 C 4.144531 -8.328125 4.191406 -8.304688 4.234375 -8.265625 C 4.273438 -8.222656 4.3125 -8.171875 4.34375 -8.109375 C 4.375 -8.054688 4.390625 -8.007812 4.390625 -7.96875 C 4.390625 -7.925781 4.375 -7.875 4.34375 -7.8125 C 4.320312 -7.757812 4.3125 -7.679688 4.3125 -7.578125 C 4.25 -7.628906 4.175781 -7.675781 4.09375 -7.71875 C 4.019531 -7.769531 3.960938 -7.828125 3.921875 -7.890625 C 3.921875 -7.929688 3.921875 -7.957031 3.921875 -7.96875 C 3.929688 -7.976562 3.957031 -8.007812 4 -8.0625 L 4 -8.265625 C 4.019531 -8.316406 4.054688 -8.34375 4.109375 -8.34375 C 4.171875 -8.351562 4.226562 -8.34375 4.28125 -8.3125 C 4.34375 -8.28125 4.394531 -8.242188 4.4375 -8.203125 C 4.476562 -8.160156 4.5 -8.113281 4.5 -8.0625 L 4.5 -7.578125 C 4.5 -7.535156 4.472656 -7.507812 4.421875 -7.5 C 4.367188 -7.5 4.3125 -7.507812 4.25 -7.53125 C 4.1875 -7.5625 4.128906 -7.597656 4.078125 -7.640625 C 4.023438 -7.679688 4 -7.726562 4 -7.78125 L 4 -8.265625 C 4.101562 -8.210938 4.179688 -8.179688 4.234375 -8.171875 C 4.296875 -8.160156 4.347656 -8.125 4.390625 -8.0625 C 4.390625 -7.976562 4.382812 -7.890625 4.375 -7.796875 C 4.375 -7.703125 4.351562 -7.628906 4.3125 -7.578125 C 4.25 -7.535156 4.191406 -7.523438 4.140625 -7.546875 C 4.097656 -7.578125 4.050781 -7.625 4 -7.6875 C 3.957031 -7.6875 3.929688 -7.703125 3.921875 -7.734375 C 3.921875 -7.773438 3.921875 -7.828125 3.921875 -7.890625 L 3.921875 -8.0625 C 3.921875 -8.101562 3.929688 -8.132812 3.953125 -8.15625 C 3.960938 -8.164062 3.976562 -8.171875 4 -8.171875 L 4 -8.0625 C 4.050781 -8.0625 4.097656 -8.046875 4.140625 -8.015625 C 4.191406 -7.984375 4.25 -7.96875 4.3125 -7.96875 Z M 4.390625 -7.96875 "/></g></g></g><g fill="#9f1581" fill-opacity="1"><g transform="translate(86.658081, 19.435323)"><g><path d="M 0.765625 -2.484375 C 0.765625 -2.453125 0.726562 -2.441406 0.65625 -2.453125 C 0.582031 -2.460938 0.492188 -2.484375 0.390625 -2.515625 C 0.296875 -2.554688 0.210938 -2.601562 0.140625 -2.65625 C 0.0664062 -2.707031 0.03125 -2.75 0.03125 -2.78125 C 0.144531 -3.039062 0.289062 -3.296875 0.46875 -3.546875 C 0.644531 -3.804688 0.835938 -4.050781 1.046875 -4.28125 C 1.265625 -4.519531 1.488281 -4.75 1.71875 -4.96875 C 1.945312 -5.195312 2.175781 -5.398438 2.40625 -5.578125 C 2.582031 -5.722656 2.765625 -5.863281 2.953125 -6 C 3.140625 -6.132812 3.332031 -6.242188 3.53125 -6.328125 C 3.738281 -6.410156 3.953125 -6.457031 4.171875 -6.46875 C 4.398438 -6.488281 4.644531 -6.441406 4.90625 -6.328125 C 5.164062 -6.179688 5.332031 -5.992188 5.40625 -5.765625 C 5.476562 -5.535156 5.5 -5.289062 5.46875 -5.03125 C 5.4375 -4.769531 5.375 -4.503906 5.28125 -4.234375 C 5.195312 -3.972656 5.117188 -3.738281 5.046875 -3.53125 C 4.828125 -2.925781 4.566406 -2.332031 4.265625 -1.75 C 3.960938 -1.164062 3.734375 -0.578125 3.578125 0.015625 C 3.429688 -0.0664062 3.304688 -0.117188 3.203125 -0.140625 C 3.109375 -0.160156 2.984375 -0.203125 2.828125 -0.265625 C 4.453125 -2.179688 5.925781 -4.25 7.25 -6.46875 C 7.289062 -6.46875 7.347656 -6.453125 7.421875 -6.421875 C 7.503906 -6.390625 7.59375 -6.359375 7.6875 -6.328125 C 7.78125 -6.273438 7.882812 -6.222656 8 -6.171875 C 7.851562 -5.941406 7.726562 -5.71875 7.625 -5.5 C 7.519531 -5.289062 7.394531 -5.070312 7.25 -4.84375 C 7.25 -4.8125 7.21875 -4.800781 7.15625 -4.8125 C 7.09375 -4.820312 7.023438 -4.84375 6.953125 -4.875 C 6.878906 -4.914062 6.8125 -4.960938 6.75 -5.015625 C 6.6875 -5.066406 6.65625 -5.109375 6.65625 -5.140625 C 6.738281 -5.359375 6.84375 -5.578125 6.96875 -5.796875 C 7.09375 -6.023438 7.1875 -6.25 7.25 -6.46875 C 7.394531 -6.394531 7.519531 -6.328125 7.625 -6.265625 C 7.726562 -6.203125 7.851562 -6.171875 8 -6.171875 C 6.644531 -3.941406 5.171875 -1.878906 3.578125 0.015625 C 3.535156 0.015625 3.472656 0.00390625 3.390625 -0.015625 C 3.316406 -0.046875 3.238281 -0.0820312 3.15625 -0.125 C 3.050781 -0.164062 2.941406 -0.210938 2.828125 -0.265625 C 2.984375 -0.785156 3.179688 -1.273438 3.421875 -1.734375 C 3.660156 -2.203125 3.859375 -2.695312 4.015625 -3.21875 C 4.085938 -3.363281 4.1875 -3.570312 4.3125 -3.84375 C 4.4375 -4.113281 4.546875 -4.394531 4.640625 -4.6875 C 4.734375 -4.988281 4.785156 -5.273438 4.796875 -5.546875 C 4.816406 -5.816406 4.753906 -6.023438 4.609375 -6.171875 C 4.578125 -6.253906 4.570312 -6.296875 4.59375 -6.296875 C 4.613281 -6.304688 4.632812 -6.300781 4.65625 -6.28125 C 4.6875 -6.257812 4.703125 -6.234375 4.703125 -6.203125 C 4.710938 -6.179688 4.679688 -6.171875 4.609375 -6.171875 C 4.578125 -6.171875 4.546875 -6.164062 4.515625 -6.15625 C 4.484375 -6.144531 4.445312 -6.128906 4.40625 -6.109375 C 4.375 -6.097656 4.34375 -6.070312 4.3125 -6.03125 C 4.238281 -6.03125 4.140625 -6 4.015625 -5.9375 C 3.898438 -5.875 3.800781 -5.804688 3.71875 -5.734375 C 3.5 -5.585938 3.28125 -5.410156 3.0625 -5.203125 C 2.84375 -5.003906 2.625 -4.789062 2.40625 -4.5625 C 2.257812 -4.414062 2.101562 -4.257812 1.9375 -4.09375 C 1.78125 -3.925781 1.625 -3.753906 1.46875 -3.578125 C 1.320312 -3.398438 1.1875 -3.21875 1.0625 -3.03125 C 0.9375 -2.851562 0.835938 -2.671875 0.765625 -2.484375 Z M 0.765625 -2.484375 "/></g></g></g><g fill="#9f1581" fill-opacity="1"><g transform="translate(93.625121, 19.435323)"><g><path d="M 5.90625 -6.4375 C 6.007812 -6.4375 6.078125 -6.414062 6.109375 -6.375 C 6.140625 -6.34375 6.132812 -6.300781 6.09375 -6.25 C 6.0625 -6.207031 6.015625 -6.164062 5.953125 -6.125 C 5.890625 -6.082031 5.832031 -6.0625 5.78125 -6.0625 C 5.65625 -6.101562 5.523438 -6.101562 5.390625 -6.0625 C 5.253906 -6.03125 5.113281 -5.976562 4.96875 -5.90625 C 4.832031 -5.832031 4.703125 -5.75 4.578125 -5.65625 C 4.453125 -5.5625 4.34375 -5.46875 4.25 -5.375 C 3.832031 -5.144531 3.445312 -4.863281 3.09375 -4.53125 C 2.75 -4.195312 2.429688 -3.851562 2.140625 -3.5 C 1.847656 -3.195312 1.566406 -2.890625 1.296875 -2.578125 C 1.035156 -2.273438 0.84375 -1.910156 0.71875 -1.484375 C 0.601562 -1.066406 0.648438 -0.75 0.859375 -0.53125 C 1.066406 -0.320312 1.375 -0.253906 1.78125 -0.328125 C 2.070312 -0.378906 2.359375 -0.476562 2.640625 -0.625 C 2.921875 -0.78125 3.1875 -0.957031 3.4375 -1.15625 C 3.695312 -1.351562 3.945312 -1.5625 4.1875 -1.78125 C 4.425781 -2.007812 4.644531 -2.222656 4.84375 -2.421875 C 5.144531 -2.847656 5.453125 -3.269531 5.765625 -3.6875 C 6.085938 -4.101562 6.363281 -4.546875 6.59375 -5.015625 C 6.59375 -5.046875 6.601562 -5.09375 6.625 -5.15625 C 6.644531 -5.21875 6.664062 -5.28125 6.6875 -5.34375 C 6.707031 -5.414062 6.710938 -5.476562 6.703125 -5.53125 C 6.703125 -5.582031 6.664062 -5.609375 6.59375 -5.609375 C 6.539062 -5.671875 6.441406 -5.679688 6.296875 -5.640625 C 6.160156 -5.609375 6.03125 -5.566406 5.90625 -5.515625 C 5.1875 -5.265625 4.507812 -4.945312 3.875 -4.5625 C 3.238281 -4.1875 2.617188 -3.789062 2.015625 -3.375 C 1.960938 -3.351562 1.894531 -3.34375 1.8125 -3.34375 C 1.738281 -3.34375 1.671875 -3.351562 1.609375 -3.375 C 1.554688 -3.394531 1.515625 -3.425781 1.484375 -3.46875 C 1.460938 -3.507812 1.484375 -3.5625 1.546875 -3.625 C 2.015625 -3.914062 2.507812 -4.207031 3.03125 -4.5 C 3.550781 -4.789062 4.078125 -5.082031 4.609375 -5.375 C 4.722656 -5.425781 4.890625 -5.507812 5.109375 -5.625 C 5.335938 -5.738281 5.582031 -5.835938 5.84375 -5.921875 C 6.101562 -6.003906 6.351562 -6.046875 6.59375 -6.046875 C 6.84375 -6.054688 7.046875 -5.988281 7.203125 -5.84375 C 7.285156 -5.695312 7.316406 -5.539062 7.296875 -5.375 C 7.273438 -5.207031 7.226562 -5.039062 7.15625 -4.875 C 7.09375 -4.707031 7.019531 -4.550781 6.9375 -4.40625 C 6.851562 -4.269531 6.785156 -4.160156 6.734375 -4.078125 C 6.441406 -3.609375 6.117188 -3.1875 5.765625 -2.8125 C 5.421875 -2.4375 5.070312 -2.078125 4.71875 -1.734375 C 4.507812 -1.554688 4.296875 -1.375 4.078125 -1.1875 C 3.859375 -1.007812 3.628906 -0.84375 3.390625 -0.6875 C 3.160156 -0.53125 2.921875 -0.398438 2.671875 -0.296875 C 2.429688 -0.191406 2.179688 -0.128906 1.921875 -0.109375 C 1.773438 -0.0664062 1.609375 -0.0390625 1.421875 -0.03125 C 1.242188 -0.0195312 1.066406 -0.03125 0.890625 -0.0625 C 0.710938 -0.09375 0.554688 -0.144531 0.421875 -0.21875 C 0.285156 -0.300781 0.1875 -0.414062 0.125 -0.5625 C 0.0078125 -0.851562 -0.00390625 -1.140625 0.078125 -1.421875 C 0.160156 -1.703125 0.296875 -1.960938 0.484375 -2.203125 C 0.722656 -2.617188 0.984375 -3 1.265625 -3.34375 C 1.554688 -3.695312 1.847656 -4.023438 2.140625 -4.328125 C 2.484375 -4.617188 2.832031 -4.90625 3.1875 -5.1875 C 3.550781 -5.476562 3.90625 -5.738281 4.25 -5.96875 C 4.476562 -6.09375 4.734375 -6.21875 5.015625 -6.34375 C 5.304688 -6.46875 5.601562 -6.5 5.90625 -6.4375 Z M 8.71875 -6.65625 C 8.75 -6.65625 8.785156 -6.632812 8.828125 -6.59375 C 8.867188 -6.550781 8.898438 -6.503906 8.921875 -6.453125 C 8.941406 -6.410156 8.945312 -6.382812 8.9375 -6.375 C 8.9375 -6.363281 8.898438 -6.382812 8.828125 -6.4375 C 8.890625 -6.382812 8.921875 -6.347656 8.921875 -6.328125 C 8.921875 -6.304688 8.890625 -6.265625 8.828125 -6.203125 C 8.773438 -6.203125 8.722656 -6.175781 8.671875 -6.125 C 8.628906 -6.070312 8.609375 -6.019531 8.609375 -5.96875 C 8.484375 -5.84375 8.363281 -5.722656 8.25 -5.609375 C 8.144531 -5.492188 8.023438 -5.375 7.890625 -5.25 C 7.546875 -4.90625 7.21875 -4.550781 6.90625 -4.1875 C 6.59375 -3.820312 6.289062 -3.4375 6 -3.03125 C 5.90625 -2.875 5.804688 -2.71875 5.703125 -2.5625 C 5.597656 -2.40625 5.492188 -2.238281 5.390625 -2.0625 C 5.285156 -1.894531 5.191406 -1.722656 5.109375 -1.546875 C 5.035156 -1.367188 4.984375 -1.195312 4.953125 -1.03125 L 4.953125 -0.921875 C 4.898438 -0.929688 4.863281 -0.945312 4.84375 -0.96875 C 4.78125 -1.007812 4.78125 -1.03125 4.84375 -1.03125 L 5.3125 -1.03125 C 5.539062 -1.09375 5.773438 -1.175781 6.015625 -1.28125 C 6.253906 -1.382812 6.492188 -1.492188 6.734375 -1.609375 C 6.765625 -1.640625 6.804688 -1.632812 6.859375 -1.59375 C 6.910156 -1.5625 6.953125 -1.515625 6.984375 -1.453125 C 7.023438 -1.398438 7.054688 -1.34375 7.078125 -1.28125 C 7.109375 -1.21875 7.101562 -1.171875 7.0625 -1.140625 C 6.914062 -1.046875 6.734375 -0.941406 6.515625 -0.828125 C 6.296875 -0.722656 6.070312 -0.644531 5.84375 -0.59375 C 5.625 -0.539062 5.40625 -0.53125 5.1875 -0.5625 C 4.976562 -0.59375 4.820312 -0.710938 4.71875 -0.921875 C 4.625 -1.085938 4.582031 -1.265625 4.59375 -1.453125 C 4.613281 -1.640625 4.660156 -1.816406 4.734375 -1.984375 C 4.804688 -2.160156 4.894531 -2.328125 5 -2.484375 C 5.113281 -2.640625 5.21875 -2.78125 5.3125 -2.90625 C 5.363281 -2.976562 5.472656 -3.132812 5.640625 -3.375 C 5.816406 -3.613281 6.015625 -3.882812 6.234375 -4.1875 C 6.460938 -4.488281 6.707031 -4.800781 6.96875 -5.125 C 7.226562 -5.457031 7.472656 -5.75 7.703125 -6 C 7.929688 -6.25 8.132812 -6.441406 8.3125 -6.578125 C 8.5 -6.710938 8.632812 -6.738281 8.71875 -6.65625 Z M 8.71875 -6.65625 "/></g></g></g><g fill="#9f1581" fill-opacity="1"><g transform="translate(101.388878, 19.435323)"><g/></g></g><g fill="#9f1581" fill-opacity="1"><g transform="translate(105.965765, 19.435323)"><g><path d="M 4.53125 -9.1875 C 4.582031 -9.226562 4.664062 -9.25 4.78125 -9.25 C 4.894531 -9.257812 5.007812 -9.257812 5.125 -9.25 C 5.25 -9.238281 5.390625 -9.21875 5.546875 -9.1875 C 4.992188 -8.644531 4.488281 -8.050781 4.03125 -7.40625 C 3.570312 -6.757812 3.15625 -6.085938 2.78125 -5.390625 C 2.40625 -4.703125 2.066406 -3.984375 1.765625 -3.234375 C 1.472656 -2.492188 1.203125 -1.75 0.953125 -1 L 0.15625 -1 C 0.351562 -1.695312 0.59375 -2.382812 0.875 -3.0625 C 1.164062 -3.738281 1.46875 -4.414062 1.78125 -5.09375 C 2.09375 -5.769531 2.398438 -6.445312 2.703125 -7.125 C 3.015625 -7.800781 3.296875 -8.488281 3.546875 -9.1875 C 3.703125 -9.21875 3.84375 -9.238281 3.96875 -9.25 C 4.082031 -9.257812 4.1875 -9.257812 4.28125 -9.25 C 4.382812 -9.25 4.46875 -9.226562 4.53125 -9.1875 C 4.9375 -8.894531 5.363281 -8.726562 5.8125 -8.6875 C 6.269531 -8.65625 6.722656 -8.722656 7.171875 -8.890625 C 7.617188 -9.054688 8.054688 -9.296875 8.484375 -9.609375 C 8.910156 -9.929688 9.289062 -10.285156 9.625 -10.671875 C 9.96875 -11.054688 10.25 -11.46875 10.46875 -11.90625 C 10.695312 -12.34375 10.847656 -12.757812 10.921875 -13.15625 L 11.921875 -13.15625 C 10.617188 -11.851562 9.472656 -10.410156 8.484375 -8.828125 C 7.492188 -7.242188 6.601562 -5.585938 5.8125 -3.859375 C 5.03125 -2.128906 4.328125 -0.363281 3.703125 1.4375 C 3.085938 3.25 2.503906 5.03125 1.953125 6.78125 C 1.734375 6.78125 1.5625 6.785156 1.4375 6.796875 C 1.3125 6.816406 1.148438 6.878906 0.953125 6.984375 C 1.148438 6.367188 1.390625 5.847656 1.671875 5.421875 C 1.960938 4.992188 2.257812 4.582031 2.5625 4.1875 C 2.601562 4.144531 2.675781 4.117188 2.78125 4.109375 C 2.894531 4.109375 3.007812 4.113281 3.125 4.125 C 3.25 4.132812 3.390625 4.15625 3.546875 4.1875 C 3.148438 4.582031 2.835938 4.988281 2.609375 5.40625 C 2.378906 5.820312 2.160156 6.28125 1.953125 6.78125 C 1.953125 6.832031 1.898438 6.863281 1.796875 6.875 C 1.691406 6.882812 1.570312 6.890625 1.4375 6.890625 C 1.3125 6.890625 1.195312 6.894531 1.09375 6.90625 C 1 6.914062 0.953125 6.941406 0.953125 6.984375 C 1.492188 5.191406 2.070312 3.375 2.6875 1.53125 C 3.3125 -0.300781 4.019531 -2.085938 4.8125 -3.828125 C 5.601562 -5.578125 6.492188 -7.242188 7.484375 -8.828125 C 8.484375 -10.410156 9.628906 -11.851562 10.921875 -13.15625 C 10.972656 -13.207031 11.054688 -13.25 11.171875 -13.28125 C 11.285156 -13.3125 11.394531 -13.328125 11.5 -13.328125 C 11.601562 -13.328125 11.695312 -13.3125 11.78125 -13.28125 C 11.875 -13.25 11.921875 -13.207031 11.921875 -13.15625 C 11.816406 -12.625 11.601562 -12.101562 11.28125 -11.59375 C 10.96875 -11.09375 10.582031 -10.632812 10.125 -10.21875 C 9.675781 -9.8125 9.171875 -9.457031 8.609375 -9.15625 C 8.054688 -8.863281 7.484375 -8.65625 6.890625 -8.53125 C 6.304688 -8.414062 5.726562 -8.40625 5.15625 -8.5 C 4.582031 -8.59375 4.046875 -8.820312 3.546875 -9.1875 L 4.53125 -9.1875 C 4.28125 -8.488281 4 -7.800781 3.6875 -7.125 C 3.375 -6.445312 3.054688 -5.769531 2.734375 -5.09375 C 2.410156 -4.414062 2.09375 -3.738281 1.78125 -3.0625 C 1.476562 -2.382812 1.203125 -1.695312 0.953125 -1 C 0.953125 -0.945312 0.90625 -0.921875 0.8125 -0.921875 C 0.726562 -0.921875 0.640625 -0.925781 0.546875 -0.9375 C 0.421875 -0.945312 0.289062 -0.96875 0.15625 -1 C 0.550781 -2.5 1.109375 -3.960938 1.828125 -5.390625 C 2.554688 -6.828125 3.457031 -8.09375 4.53125 -9.1875 Z M 4.53125 -9.1875 "/></g></g></g><g fill="#9f1581" fill-opacity="1"><g transform="translate(112.492067, 19.435323)"><g><path d="M 5.90625 -6.4375 C 6.007812 -6.4375 6.078125 -6.414062 6.109375 -6.375 C 6.140625 -6.34375 6.132812 -6.300781 6.09375 -6.25 C 6.0625 -6.207031 6.015625 -6.164062 5.953125 -6.125 C 5.890625 -6.082031 5.832031 -6.0625 5.78125 -6.0625 C 5.65625 -6.101562 5.523438 -6.101562 5.390625 -6.0625 C 5.253906 -6.03125 5.113281 -5.976562 4.96875 -5.90625 C 4.832031 -5.832031 4.703125 -5.75 4.578125 -5.65625 C 4.453125 -5.5625 4.34375 -5.46875 4.25 -5.375 C 3.832031 -5.144531 3.445312 -4.863281 3.09375 -4.53125 C 2.75 -4.195312 2.429688 -3.851562 2.140625 -3.5 C 1.847656 -3.195312 1.566406 -2.890625 1.296875 -2.578125 C 1.035156 -2.273438 0.84375 -1.910156 0.71875 -1.484375 C 0.601562 -1.066406 0.648438 -0.75 0.859375 -0.53125 C 1.066406 -0.320312 1.375 -0.253906 1.78125 -0.328125 C 2.070312 -0.378906 2.359375 -0.476562 2.640625 -0.625 C 2.921875 -0.78125 3.1875 -0.957031 3.4375 -1.15625 C 3.695312 -1.351562 3.945312 -1.5625 4.1875 -1.78125 C 4.425781 -2.007812 4.644531 -2.222656 4.84375 -2.421875 C 5.144531 -2.847656 5.453125 -3.269531 5.765625 -3.6875 C 6.085938 -4.101562 6.363281 -4.546875 6.59375 -5.015625 C 6.59375 -5.046875 6.601562 -5.09375 6.625 -5.15625 C 6.644531 -5.21875 6.664062 -5.28125 6.6875 -5.34375 C 6.707031 -5.414062 6.710938 -5.476562 6.703125 -5.53125 C 6.703125 -5.582031 6.664062 -5.609375 6.59375 -5.609375 C 6.539062 -5.671875 6.441406 -5.679688 6.296875 -5.640625 C 6.160156 -5.609375 6.03125 -5.566406 5.90625 -5.515625 C 5.1875 -5.265625 4.507812 -4.945312 3.875 -4.5625 C 3.238281 -4.1875 2.617188 -3.789062 2.015625 -3.375 C 1.960938 -3.351562 1.894531 -3.34375 1.8125 -3.34375 C 1.738281 -3.34375 1.671875 -3.351562 1.609375 -3.375 C 1.554688 -3.394531 1.515625 -3.425781 1.484375 -3.46875 C 1.460938 -3.507812 1.484375 -3.5625 1.546875 -3.625 C 2.015625 -3.914062 2.507812 -4.207031 3.03125 -4.5 C 3.550781 -4.789062 4.078125 -5.082031 4.609375 -5.375 C 4.722656 -5.425781 4.890625 -5.507812 5.109375 -5.625 C 5.335938 -5.738281 5.582031 -5.835938 5.84375 -5.921875 C 6.101562 -6.003906 6.351562 -6.046875 6.59375 -6.046875 C 6.84375 -6.054688 7.046875 -5.988281 7.203125 -5.84375 C 7.285156 -5.695312 7.316406 -5.539062 7.296875 -5.375 C 7.273438 -5.207031 7.226562 -5.039062 7.15625 -4.875 C 7.09375 -4.707031 7.019531 -4.550781 6.9375 -4.40625 C 6.851562 -4.269531 6.785156 -4.160156 6.734375 -4.078125 C 6.441406 -3.609375 6.117188 -3.1875 5.765625 -2.8125 C 5.421875 -2.4375 5.070312 -2.078125 4.71875 -1.734375 C 4.507812 -1.554688 4.296875 -1.375 4.078125 -1.1875 C 3.859375 -1.007812 3.628906 -0.84375 3.390625 -0.6875 C 3.160156 -0.53125 2.921875 -0.398438 2.671875 -0.296875 C 2.429688 -0.191406 2.179688 -0.128906 1.921875 -0.109375 C 1.773438 -0.0664062 1.609375 -0.0390625 1.421875 -0.03125 C 1.242188 -0.0195312 1.066406 -0.03125 0.890625 -0.0625 C 0.710938 -0.09375 0.554688 -0.144531 0.421875 -0.21875 C 0.285156 -0.300781 0.1875 -0.414062 0.125 -0.5625 C 0.0078125 -0.851562 -0.00390625 -1.140625 0.078125 -1.421875 C 0.160156 -1.703125 0.296875 -1.960938 0.484375 -2.203125 C 0.722656 -2.617188 0.984375 -3 1.265625 -3.34375 C 1.554688 -3.695312 1.847656 -4.023438 2.140625 -4.328125 C 2.484375 -4.617188 2.832031 -4.90625 3.1875 -5.1875 C 3.550781 -5.476562 3.90625 -5.738281 4.25 -5.96875 C 4.476562 -6.09375 4.734375 -6.21875 5.015625 -6.34375 C 5.304688 -6.46875 5.601562 -6.5 5.90625 -6.4375 Z M 8.71875 -6.65625 C 8.75 -6.65625 8.785156 -6.632812 8.828125 -6.59375 C 8.867188 -6.550781 8.898438 -6.503906 8.921875 -6.453125 C 8.941406 -6.410156 8.945312 -6.382812 8.9375 -6.375 C 8.9375 -6.363281 8.898438 -6.382812 8.828125 -6.4375 C 8.890625 -6.382812 8.921875 -6.347656 8.921875 -6.328125 C 8.921875 -6.304688 8.890625 -6.265625 8.828125 -6.203125 C 8.773438 -6.203125 8.722656 -6.175781 8.671875 -6.125 C 8.628906 -6.070312 8.609375 -6.019531 8.609375 -5.96875 C 8.484375 -5.84375 8.363281 -5.722656 8.25 -5.609375 C 8.144531 -5.492188 8.023438 -5.375 7.890625 -5.25 C 7.546875 -4.90625 7.21875 -4.550781 6.90625 -4.1875 C 6.59375 -3.820312 6.289062 -3.4375 6 -3.03125 C 5.90625 -2.875 5.804688 -2.71875 5.703125 -2.5625 C 5.597656 -2.40625 5.492188 -2.238281 5.390625 -2.0625 C 5.285156 -1.894531 5.191406 -1.722656 5.109375 -1.546875 C 5.035156 -1.367188 4.984375 -1.195312 4.953125 -1.03125 L 4.953125 -0.921875 C 4.898438 -0.929688 4.863281 -0.945312 4.84375 -0.96875 C 4.78125 -1.007812 4.78125 -1.03125 4.84375 -1.03125 L 5.3125 -1.03125 C 5.539062 -1.09375 5.773438 -1.175781 6.015625 -1.28125 C 6.253906 -1.382812 6.492188 -1.492188 6.734375 -1.609375 C 6.765625 -1.640625 6.804688 -1.632812 6.859375 -1.59375 C 6.910156 -1.5625 6.953125 -1.515625 6.984375 -1.453125 C 7.023438 -1.398438 7.054688 -1.34375 7.078125 -1.28125 C 7.109375 -1.21875 7.101562 -1.171875 7.0625 -1.140625 C 6.914062 -1.046875 6.734375 -0.941406 6.515625 -0.828125 C 6.296875 -0.722656 6.070312 -0.644531 5.84375 -0.59375 C 5.625 -0.539062 5.40625 -0.53125 5.1875 -0.5625 C 4.976562 -0.59375 4.820312 -0.710938 4.71875 -0.921875 C 4.625 -1.085938 4.582031 -1.265625 4.59375 -1.453125 C 4.613281 -1.640625 4.660156 -1.816406 4.734375 -1.984375 C 4.804688 -2.160156 4.894531 -2.328125 5 -2.484375 C 5.113281 -2.640625 5.21875 -2.78125 5.3125 -2.90625 C 5.363281 -2.976562 5.472656 -3.132812 5.640625 -3.375 C 5.816406 -3.613281 6.015625 -3.882812 6.234375 -4.1875 C 6.460938 -4.488281 6.707031 -4.800781 6.96875 -5.125 C 7.226562 -5.457031 7.472656 -5.75 7.703125 -6 C 7.929688 -6.25 8.132812 -6.441406 8.3125 -6.578125 C 8.5 -6.710938 8.632812 -6.738281 8.71875 -6.65625 Z M 8.71875 -6.65625 "/></g></g></g><g fill="#9f1581" fill-opacity="1"><g transform="translate(120.255824, 19.435323)"><g><path d="M 3.46875 -6.34375 C 3.519531 -6.375 3.585938 -6.390625 3.671875 -6.390625 C 3.753906 -6.398438 3.84375 -6.398438 3.9375 -6.390625 C 4.03125 -6.378906 4.132812 -6.363281 4.25 -6.34375 C 3.832031 -5.925781 3.453125 -5.472656 3.109375 -4.984375 C 2.765625 -4.492188 2.453125 -3.984375 2.171875 -3.453125 C 1.890625 -2.921875 1.628906 -2.375 1.390625 -1.8125 C 1.160156 -1.257812 0.953125 -0.695312 0.765625 -0.125 L 0.15625 -0.125 C 0.300781 -0.65625 0.484375 -1.175781 0.703125 -1.6875 C 0.921875 -2.207031 1.148438 -2.722656 1.390625 -3.234375 C 1.628906 -3.742188 1.863281 -4.253906 2.09375 -4.765625 C 2.320312 -5.285156 2.535156 -5.8125 2.734375 -6.34375 C 2.847656 -6.363281 2.953125 -6.378906 3.046875 -6.390625 C 3.140625 -6.398438 3.222656 -6.398438 3.296875 -6.390625 C 3.378906 -6.390625 3.4375 -6.375 3.46875 -6.34375 C 3.78125 -6.113281 4.109375 -5.988281 4.453125 -5.96875 C 4.804688 -5.945312 5.15625 -6 5.5 -6.125 C 5.84375 -6.25 6.171875 -6.429688 6.484375 -6.671875 C 6.804688 -6.910156 7.097656 -7.179688 7.359375 -7.484375 C 7.617188 -7.785156 7.832031 -8.097656 8 -8.421875 C 8.175781 -8.753906 8.289062 -9.070312 8.34375 -9.375 L 9.109375 -9.375 C 8.117188 -8.394531 7.242188 -7.296875 6.484375 -6.078125 C 5.734375 -4.867188 5.0625 -3.609375 4.46875 -2.296875 C 3.875 -0.984375 3.335938 0.359375 2.859375 1.734375 C 2.390625 3.109375 1.945312 4.460938 1.53125 5.796875 C 1.363281 5.796875 1.234375 5.800781 1.140625 5.8125 C 1.046875 5.820312 0.921875 5.867188 0.765625 5.953125 C 0.921875 5.484375 1.101562 5.082031 1.3125 4.75 C 1.53125 4.425781 1.753906 4.117188 1.984375 3.828125 C 2.015625 3.796875 2.066406 3.773438 2.140625 3.765625 C 2.222656 3.765625 2.3125 3.769531 2.40625 3.78125 C 2.507812 3.789062 2.617188 3.804688 2.734375 3.828125 C 2.421875 4.117188 2.179688 4.421875 2.015625 4.734375 C 1.847656 5.054688 1.6875 5.410156 1.53125 5.796875 C 1.53125 5.828125 1.488281 5.847656 1.40625 5.859375 C 1.320312 5.867188 1.234375 5.875 1.140625 5.875 C 1.046875 5.875 0.957031 5.878906 0.875 5.890625 C 0.800781 5.898438 0.765625 5.921875 0.765625 5.953125 C 1.179688 4.585938 1.625 3.207031 2.09375 1.8125 C 2.5625 0.414062 3.09375 -0.941406 3.6875 -2.265625 C 4.289062 -3.597656 4.96875 -4.867188 5.71875 -6.078125 C 6.476562 -7.296875 7.351562 -8.394531 8.34375 -9.375 C 8.382812 -9.40625 8.445312 -9.429688 8.53125 -9.453125 C 8.613281 -9.484375 8.695312 -9.5 8.78125 -9.5 C 8.875 -9.5 8.953125 -9.484375 9.015625 -9.453125 C 9.078125 -9.429688 9.109375 -9.40625 9.109375 -9.375 C 9.023438 -8.96875 8.863281 -8.570312 8.625 -8.1875 C 8.382812 -7.800781 8.09375 -7.445312 7.75 -7.125 C 7.40625 -6.8125 7.019531 -6.539062 6.59375 -6.3125 C 6.175781 -6.09375 5.742188 -5.9375 5.296875 -5.84375 C 4.847656 -5.757812 4.398438 -5.75 3.953125 -5.8125 C 3.503906 -5.882812 3.097656 -6.0625 2.734375 -6.34375 L 3.46875 -6.34375 C 3.28125 -5.8125 3.066406 -5.285156 2.828125 -4.765625 C 2.597656 -4.253906 2.363281 -3.742188 2.125 -3.234375 C 1.882812 -2.722656 1.644531 -2.207031 1.40625 -1.6875 C 1.164062 -1.175781 0.953125 -0.65625 0.765625 -0.125 C 0.765625 -0.0703125 0.734375 -0.046875 0.671875 -0.046875 C 0.609375 -0.046875 0.535156 -0.0507812 0.453125 -0.0625 C 0.367188 -0.0703125 0.269531 -0.09375 0.15625 -0.125 C 0.457031 -1.269531 0.878906 -2.382812 1.421875 -3.46875 C 1.960938 -4.550781 2.644531 -5.507812 3.46875 -6.34375 Z M 3.46875 -6.34375 "/></g></g></g><g fill="#9f1581" fill-opacity="1"><g transform="translate(126.782126, 19.435323)"><g><path d="M 5.90625 -6.4375 C 6.007812 -6.4375 6.078125 -6.414062 6.109375 -6.375 C 6.140625 -6.34375 6.132812 -6.300781 6.09375 -6.25 C 6.0625 -6.207031 6.015625 -6.164062 5.953125 -6.125 C 5.890625 -6.082031 5.832031 -6.0625 5.78125 -6.0625 C 5.65625 -6.101562 5.523438 -6.101562 5.390625 -6.0625 C 5.253906 -6.03125 5.113281 -5.976562 4.96875 -5.90625 C 4.832031 -5.832031 4.703125 -5.75 4.578125 -5.65625 C 4.453125 -5.5625 4.34375 -5.46875 4.25 -5.375 C 3.832031 -5.144531 3.445312 -4.863281 3.09375 -4.53125 C 2.75 -4.195312 2.429688 -3.851562 2.140625 -3.5 C 1.847656 -3.195312 1.566406 -2.890625 1.296875 -2.578125 C 1.035156 -2.273438 0.84375 -1.910156 0.71875 -1.484375 C 0.601562 -1.066406 0.648438 -0.75 0.859375 -0.53125 C 1.066406 -0.320312 1.375 -0.253906 1.78125 -0.328125 C 2.070312 -0.378906 2.359375 -0.476562 2.640625 -0.625 C 2.921875 -0.78125 3.1875 -0.957031 3.4375 -1.15625 C 3.695312 -1.351562 3.945312 -1.5625 4.1875 -1.78125 C 4.425781 -2.007812 4.644531 -2.222656 4.84375 -2.421875 C 5.144531 -2.847656 5.453125 -3.269531 5.765625 -3.6875 C 6.085938 -4.101562 6.363281 -4.546875 6.59375 -5.015625 C 6.59375 -5.046875 6.601562 -5.09375 6.625 -5.15625 C 6.644531 -5.21875 6.664062 -5.28125 6.6875 -5.34375 C 6.707031 -5.414062 6.710938 -5.476562 6.703125 -5.53125 C 6.703125 -5.582031 6.664062 -5.609375 6.59375 -5.609375 C 6.539062 -5.671875 6.441406 -5.679688 6.296875 -5.640625 C 6.160156 -5.609375 6.03125 -5.566406 5.90625 -5.515625 C 5.1875 -5.265625 4.507812 -4.945312 3.875 -4.5625 C 3.238281 -4.1875 2.617188 -3.789062 2.015625 -3.375 C 1.960938 -3.351562 1.894531 -3.34375 1.8125 -3.34375 C 1.738281 -3.34375 1.671875 -3.351562 1.609375 -3.375 C 1.554688 -3.394531 1.515625 -3.425781 1.484375 -3.46875 C 1.460938 -3.507812 1.484375 -3.5625 1.546875 -3.625 C 2.015625 -3.914062 2.507812 -4.207031 3.03125 -4.5 C 3.550781 -4.789062 4.078125 -5.082031 4.609375 -5.375 C 4.722656 -5.425781 4.890625 -5.507812 5.109375 -5.625 C 5.335938 -5.738281 5.582031 -5.835938 5.84375 -5.921875 C 6.101562 -6.003906 6.351562 -6.046875 6.59375 -6.046875 C 6.84375 -6.054688 7.046875 -5.988281 7.203125 -5.84375 C 7.285156 -5.695312 7.316406 -5.539062 7.296875 -5.375 C 7.273438 -5.207031 7.226562 -5.039062 7.15625 -4.875 C 7.09375 -4.707031 7.019531 -4.550781 6.9375 -4.40625 C 6.851562 -4.269531 6.785156 -4.160156 6.734375 -4.078125 C 6.441406 -3.609375 6.117188 -3.1875 5.765625 -2.8125 C 5.421875 -2.4375 5.070312 -2.078125 4.71875 -1.734375 C 4.507812 -1.554688 4.296875 -1.375 4.078125 -1.1875 C 3.859375 -1.007812 3.628906 -0.84375 3.390625 -0.6875 C 3.160156 -0.53125 2.921875 -0.398438 2.671875 -0.296875 C 2.429688 -0.191406 2.179688 -0.128906 1.921875 -0.109375 C 1.773438 -0.0664062 1.609375 -0.0390625 1.421875 -0.03125 C 1.242188 -0.0195312 1.066406 -0.03125 0.890625 -0.0625 C 0.710938 -0.09375 0.554688 -0.144531 0.421875 -0.21875 C 0.285156 -0.300781 0.1875 -0.414062 0.125 -0.5625 C 0.0078125 -0.851562 -0.00390625 -1.140625 0.078125 -1.421875 C 0.160156 -1.703125 0.296875 -1.960938 0.484375 -2.203125 C 0.722656 -2.617188 0.984375 -3 1.265625 -3.34375 C 1.554688 -3.695312 1.847656 -4.023438 2.140625 -4.328125 C 2.484375 -4.617188 2.832031 -4.90625 3.1875 -5.1875 C 3.550781 -5.476562 3.90625 -5.738281 4.25 -5.96875 C 4.476562 -6.09375 4.734375 -6.21875 5.015625 -6.34375 C 5.304688 -6.46875 5.601562 -6.5 5.90625 -6.4375 Z M 8.71875 -6.65625 C 8.75 -6.65625 8.785156 -6.632812 8.828125 -6.59375 C 8.867188 -6.550781 8.898438 -6.503906 8.921875 -6.453125 C 8.941406 -6.410156 8.945312 -6.382812 8.9375 -6.375 C 8.9375 -6.363281 8.898438 -6.382812 8.828125 -6.4375 C 8.890625 -6.382812 8.921875 -6.347656 8.921875 -6.328125 C 8.921875 -6.304688 8.890625 -6.265625 8.828125 -6.203125 C 8.773438 -6.203125 8.722656 -6.175781 8.671875 -6.125 C 8.628906 -6.070312 8.609375 -6.019531 8.609375 -5.96875 C 8.484375 -5.84375 8.363281 -5.722656 8.25 -5.609375 C 8.144531 -5.492188 8.023438 -5.375 7.890625 -5.25 C 7.546875 -4.90625 7.21875 -4.550781 6.90625 -4.1875 C 6.59375 -3.820312 6.289062 -3.4375 6 -3.03125 C 5.90625 -2.875 5.804688 -2.71875 5.703125 -2.5625 C 5.597656 -2.40625 5.492188 -2.238281 5.390625 -2.0625 C 5.285156 -1.894531 5.191406 -1.722656 5.109375 -1.546875 C 5.035156 -1.367188 4.984375 -1.195312 4.953125 -1.03125 L 4.953125 -0.921875 C 4.898438 -0.929688 4.863281 -0.945312 4.84375 -0.96875 C 4.78125 -1.007812 4.78125 -1.03125 4.84375 -1.03125 L 5.3125 -1.03125 C 5.539062 -1.09375 5.773438 -1.175781 6.015625 -1.28125 C 6.253906 -1.382812 6.492188 -1.492188 6.734375 -1.609375 C 6.765625 -1.640625 6.804688 -1.632812 6.859375 -1.59375 C 6.910156 -1.5625 6.953125 -1.515625 6.984375 -1.453125 C 7.023438 -1.398438 7.054688 -1.34375 7.078125 -1.28125 C 7.109375 -1.21875 7.101562 -1.171875 7.0625 -1.140625 C 6.914062 -1.046875 6.734375 -0.941406 6.515625 -0.828125 C 6.296875 -0.722656 6.070312 -0.644531 5.84375 -0.59375 C 5.625 -0.539062 5.40625 -0.53125 5.1875 -0.5625 C 4.976562 -0.59375 4.820312 -0.710938 4.71875 -0.921875 C 4.625 -1.085938 4.582031 -1.265625 4.59375 -1.453125 C 4.613281 -1.640625 4.660156 -1.816406 4.734375 -1.984375 C 4.804688 -2.160156 4.894531 -2.328125 5 -2.484375 C 5.113281 -2.640625 5.21875 -2.78125 5.3125 -2.90625 C 5.363281 -2.976562 5.472656 -3.132812 5.640625 -3.375 C 5.816406 -3.613281 6.015625 -3.882812 6.234375 -4.1875 C 6.460938 -4.488281 6.707031 -4.800781 6.96875 -5.125 C 7.226562 -5.457031 7.472656 -5.75 7.703125 -6 C 7.929688 -6.25 8.132812 -6.441406 8.3125 -6.578125 C 8.5 -6.710938 8.632812 -6.738281 8.71875 -6.65625 Z M 8.71875 -6.65625 "/></g></g></g><g fill="#9f1581" fill-opacity="1"><g transform="translate(134.545882, 19.435323)"><g><path d="M 4.546875 -5.640625 C 4.472656 -5.578125 4.390625 -5.550781 4.296875 -5.5625 C 4.210938 -5.570312 4.140625 -5.601562 4.078125 -5.65625 C 4.015625 -5.707031 3.972656 -5.765625 3.953125 -5.828125 C 3.929688 -5.898438 3.953125 -5.96875 4.015625 -6.03125 C 4.054688 -6.03125 4.09375 -6.054688 4.125 -6.109375 C 4.132812 -6.128906 4.140625 -6.148438 4.140625 -6.171875 C 4.191406 -6.117188 4.226562 -6.054688 4.25 -5.984375 C 4.257812 -5.953125 4.265625 -5.929688 4.265625 -5.921875 L 4.546875 -5.921875 C 3.941406 -5.523438 3.367188 -5.039062 2.828125 -4.46875 C 2.285156 -3.894531 1.851562 -3.28125 1.53125 -2.625 C 1.488281 -2.5 1.40625 -2.3125 1.28125 -2.0625 C 1.164062 -1.820312 1.066406 -1.585938 0.984375 -1.359375 C 0.910156 -1.128906 0.898438 -0.9375 0.953125 -0.78125 C 1.003906 -0.632812 1.195312 -0.59375 1.53125 -0.65625 C 2.0625 -0.78125 2.546875 -1 2.984375 -1.3125 C 3.421875 -1.625 3.804688 -1.976562 4.140625 -2.375 C 4.398438 -2.632812 4.640625 -2.925781 4.859375 -3.25 C 5.078125 -3.570312 5.1875 -3.929688 5.1875 -4.328125 C 5.269531 -4.734375 5.242188 -5.078125 5.109375 -5.359375 C 4.972656 -5.640625 4.738281 -5.910156 4.40625 -6.171875 C 4.238281 -6.335938 4.078125 -6.503906 3.921875 -6.671875 C 3.773438 -6.835938 3.644531 -7.007812 3.53125 -7.1875 C 3.425781 -7.363281 3.351562 -7.550781 3.3125 -7.75 C 3.269531 -7.945312 3.285156 -8.160156 3.359375 -8.390625 C 3.546875 -8.785156 3.789062 -9.144531 4.09375 -9.46875 C 4.40625 -9.800781 4.722656 -10.097656 5.046875 -10.359375 C 5.410156 -10.617188 5.796875 -10.867188 6.203125 -11.109375 C 6.609375 -11.359375 7.03125 -11.582031 7.46875 -11.78125 C 7.90625 -11.976562 8.347656 -12.144531 8.796875 -12.28125 C 9.253906 -12.425781 9.710938 -12.53125 10.171875 -12.59375 C 10.242188 -12.59375 10.3125 -12.582031 10.375 -12.5625 C 10.445312 -12.539062 10.507812 -12.46875 10.5625 -12.34375 C 10.625 -12.132812 10.648438 -11.90625 10.640625 -11.65625 C 10.628906 -11.40625 10.5625 -11.148438 10.4375 -10.890625 C 10.40625 -10.816406 10.347656 -10.78125 10.265625 -10.78125 C 10.179688 -10.78125 10.101562 -10.800781 10.03125 -10.84375 C 9.957031 -10.882812 9.898438 -10.941406 9.859375 -11.015625 C 9.828125 -11.085938 9.847656 -11.175781 9.921875 -11.28125 C 9.984375 -11.394531 10.035156 -11.523438 10.078125 -11.671875 C 10.117188 -11.828125 10.109375 -12 10.046875 -12.1875 C 10.109375 -12.1875 10.171875 -12.15625 10.234375 -12.09375 C 10.304688 -12.039062 10.375 -11.988281 10.4375 -11.9375 C 9.90625 -11.863281 9.40625 -11.738281 8.9375 -11.5625 C 8.46875 -11.394531 8.003906 -11.210938 7.546875 -11.015625 C 7.023438 -10.753906 6.492188 -10.472656 5.953125 -10.171875 C 5.410156 -9.878906 4.941406 -9.503906 4.546875 -9.046875 C 4.410156 -8.847656 4.265625 -8.648438 4.109375 -8.453125 C 3.953125 -8.253906 3.875 -8.054688 3.875 -7.859375 C 3.875 -7.703125 3.925781 -7.550781 4.03125 -7.40625 C 4.132812 -7.257812 4.253906 -7.117188 4.390625 -6.984375 C 4.523438 -6.859375 4.664062 -6.738281 4.8125 -6.625 C 4.957031 -6.507812 5.082031 -6.40625 5.1875 -6.3125 C 5.425781 -6.050781 5.59375 -5.765625 5.6875 -5.453125 C 5.789062 -5.148438 5.84375 -4.84375 5.84375 -4.53125 C 5.84375 -4.21875 5.796875 -3.910156 5.703125 -3.609375 C 5.617188 -3.304688 5.5 -3.023438 5.34375 -2.765625 C 5 -2.242188 4.582031 -1.765625 4.09375 -1.328125 C 3.613281 -0.898438 3.109375 -0.59375 2.578125 -0.40625 C 2.421875 -0.34375 2.238281 -0.273438 2.03125 -0.203125 C 1.832031 -0.140625 1.632812 -0.09375 1.4375 -0.0625 C 1.238281 -0.03125 1.050781 -0.0351562 0.875 -0.078125 C 0.707031 -0.128906 0.570312 -0.238281 0.46875 -0.40625 C 0.332031 -0.59375 0.273438 -0.8125 0.296875 -1.0625 C 0.316406 -1.320312 0.367188 -1.582031 0.453125 -1.84375 C 0.546875 -2.101562 0.65625 -2.359375 0.78125 -2.609375 C 0.914062 -2.867188 1.035156 -3.09375 1.140625 -3.28125 C 1.535156 -3.875 1.988281 -4.445312 2.5 -5 C 3.019531 -5.5625 3.609375 -6.039062 4.265625 -6.4375 C 4.316406 -6.4375 4.363281 -6.429688 4.40625 -6.421875 C 4.5 -6.398438 4.546875 -6.363281 4.546875 -6.3125 L 4.65625 -6.3125 C 4.71875 -6.25 4.757812 -6.1875 4.78125 -6.125 C 4.789062 -6.082031 4.796875 -6.050781 4.796875 -6.03125 C 4.796875 -5.90625 4.765625 -5.828125 4.703125 -5.796875 C 4.648438 -5.765625 4.597656 -5.710938 4.546875 -5.640625 Z M 4.546875 -5.640625 "/></g></g></g><g fill="#9f1581" fill-opacity="1"><g transform="translate(141.072179, 19.435323)"><g><path d="M 4.328125 -6.578125 C 4.378906 -6.578125 4.425781 -6.546875 4.46875 -6.484375 C 4.507812 -6.421875 4.53125 -6.351562 4.53125 -6.28125 C 4.539062 -6.21875 4.523438 -6.160156 4.484375 -6.109375 C 4.453125 -6.066406 4.398438 -6.066406 4.328125 -6.109375 C 4.023438 -6.148438 3.738281 -6.082031 3.46875 -5.90625 C 3.195312 -5.738281 2.972656 -5.566406 2.796875 -5.390625 C 2.441406 -5.097656 2.144531 -4.78125 1.90625 -4.4375 C 1.664062 -4.101562 1.453125 -3.757812 1.265625 -3.40625 C 1.179688 -3.257812 1.09375 -3.097656 1 -2.921875 C 0.90625 -2.742188 0.820312 -2.566406 0.75 -2.390625 C 0.675781 -2.210938 0.617188 -2.03125 0.578125 -1.84375 C 0.546875 -1.65625 0.539062 -1.46875 0.5625 -1.28125 C 0.59375 -1.082031 0.65625 -0.925781 0.75 -0.8125 C 0.851562 -0.707031 0.96875 -0.640625 1.09375 -0.609375 C 1.21875 -0.585938 1.359375 -0.59375 1.515625 -0.625 C 1.671875 -0.65625 1.820312 -0.71875 1.96875 -0.8125 C 2.382812 -0.988281 2.769531 -1.21875 3.125 -1.5 C 3.488281 -1.789062 3.847656 -2.113281 4.203125 -2.46875 C 4.429688 -2.757812 4.675781 -3.050781 4.9375 -3.34375 C 5.195312 -3.632812 5.390625 -3.925781 5.515625 -4.21875 C 5.585938 -4.382812 5.65625 -4.578125 5.71875 -4.796875 C 5.78125 -5.023438 5.800781 -5.234375 5.78125 -5.421875 C 5.769531 -5.617188 5.707031 -5.78125 5.59375 -5.90625 C 5.476562 -6.039062 5.289062 -6.109375 5.03125 -6.109375 C 4.613281 -6.109375 4.207031 -6.007812 3.8125 -5.8125 C 3.425781 -5.613281 3.085938 -5.398438 2.796875 -5.171875 C 2.742188 -5.097656 2.679688 -5.070312 2.609375 -5.09375 C 2.546875 -5.113281 2.488281 -5.15625 2.4375 -5.21875 C 2.382812 -5.28125 2.34375 -5.347656 2.3125 -5.421875 C 2.289062 -5.503906 2.296875 -5.570312 2.328125 -5.625 C 2.679688 -5.863281 3.035156 -6.082031 3.390625 -6.28125 C 3.753906 -6.476562 4.144531 -6.578125 4.5625 -6.578125 C 4.914062 -6.628906 5.242188 -6.585938 5.546875 -6.453125 C 5.859375 -6.328125 6.078125 -6.09375 6.203125 -5.75 C 6.265625 -5.539062 6.285156 -5.328125 6.265625 -5.109375 C 6.253906 -4.890625 6.222656 -4.675781 6.171875 -4.46875 C 6.117188 -4.269531 6.039062 -4.078125 5.9375 -3.890625 C 5.832031 -3.710938 5.722656 -3.550781 5.609375 -3.40625 C 5.316406 -2.988281 5 -2.582031 4.65625 -2.1875 C 4.320312 -1.800781 3.976562 -1.460938 3.625 -1.171875 C 3.257812 -0.878906 2.878906 -0.613281 2.484375 -0.375 C 2.097656 -0.144531 1.691406 -0.0625 1.265625 -0.125 C 0.953125 -0.15625 0.707031 -0.242188 0.53125 -0.390625 C 0.363281 -0.535156 0.242188 -0.710938 0.171875 -0.921875 C 0.109375 -1.128906 0.0859375 -1.359375 0.109375 -1.609375 C 0.140625 -1.867188 0.1875 -2.128906 0.25 -2.390625 C 0.320312 -2.648438 0.40625 -2.894531 0.5 -3.125 C 0.601562 -3.351562 0.707031 -3.5625 0.8125 -3.75 C 1.039062 -4.164062 1.300781 -4.566406 1.59375 -4.953125 C 1.882812 -5.347656 2.207031 -5.691406 2.5625 -5.984375 C 2.675781 -6.066406 2.800781 -6.15625 2.9375 -6.25 C 3.070312 -6.34375 3.210938 -6.421875 3.359375 -6.484375 C 3.503906 -6.554688 3.65625 -6.601562 3.8125 -6.625 C 3.976562 -6.644531 4.148438 -6.628906 4.328125 -6.578125 Z M 4.328125 -6.578125 "/></g></g></g><g fill="#9f1581" fill-opacity="1"><g transform="translate(147.157747, 19.435323)"><g><path d="M 3.46875 -6.34375 C 3.519531 -6.375 3.585938 -6.390625 3.671875 -6.390625 C 3.753906 -6.398438 3.84375 -6.398438 3.9375 -6.390625 C 4.03125 -6.378906 4.132812 -6.363281 4.25 -6.34375 C 3.832031 -5.925781 3.453125 -5.472656 3.109375 -4.984375 C 2.765625 -4.492188 2.453125 -3.984375 2.171875 -3.453125 C 1.890625 -2.921875 1.628906 -2.375 1.390625 -1.8125 C 1.160156 -1.257812 0.953125 -0.695312 0.765625 -0.125 L 0.15625 -0.125 C 0.300781 -0.65625 0.484375 -1.175781 0.703125 -1.6875 C 0.921875 -2.207031 1.148438 -2.722656 1.390625 -3.234375 C 1.628906 -3.742188 1.863281 -4.253906 2.09375 -4.765625 C 2.320312 -5.285156 2.535156 -5.8125 2.734375 -6.34375 C 2.847656 -6.363281 2.953125 -6.378906 3.046875 -6.390625 C 3.140625 -6.398438 3.222656 -6.398438 3.296875 -6.390625 C 3.378906 -6.390625 3.4375 -6.375 3.46875 -6.34375 C 3.78125 -6.113281 4.109375 -5.988281 4.453125 -5.96875 C 4.804688 -5.945312 5.15625 -6 5.5 -6.125 C 5.84375 -6.25 6.171875 -6.429688 6.484375 -6.671875 C 6.804688 -6.910156 7.097656 -7.179688 7.359375 -7.484375 C 7.617188 -7.785156 7.832031 -8.097656 8 -8.421875 C 8.175781 -8.753906 8.289062 -9.070312 8.34375 -9.375 L 9.109375 -9.375 C 8.117188 -8.394531 7.242188 -7.296875 6.484375 -6.078125 C 5.734375 -4.867188 5.0625 -3.609375 4.46875 -2.296875 C 3.875 -0.984375 3.335938 0.359375 2.859375 1.734375 C 2.390625 3.109375 1.945312 4.460938 1.53125 5.796875 C 1.363281 5.796875 1.234375 5.800781 1.140625 5.8125 C 1.046875 5.820312 0.921875 5.867188 0.765625 5.953125 C 0.921875 5.484375 1.101562 5.082031 1.3125 4.75 C 1.53125 4.425781 1.753906 4.117188 1.984375 3.828125 C 2.015625 3.796875 2.066406 3.773438 2.140625 3.765625 C 2.222656 3.765625 2.3125 3.769531 2.40625 3.78125 C 2.507812 3.789062 2.617188 3.804688 2.734375 3.828125 C 2.421875 4.117188 2.179688 4.421875 2.015625 4.734375 C 1.847656 5.054688 1.6875 5.410156 1.53125 5.796875 C 1.53125 5.828125 1.488281 5.847656 1.40625 5.859375 C 1.320312 5.867188 1.234375 5.875 1.140625 5.875 C 1.046875 5.875 0.957031 5.878906 0.875 5.890625 C 0.800781 5.898438 0.765625 5.921875 0.765625 5.953125 C 1.179688 4.585938 1.625 3.207031 2.09375 1.8125 C 2.5625 0.414062 3.09375 -0.941406 3.6875 -2.265625 C 4.289062 -3.597656 4.96875 -4.867188 5.71875 -6.078125 C 6.476562 -7.296875 7.351562 -8.394531 8.34375 -9.375 C 8.382812 -9.40625 8.445312 -9.429688 8.53125 -9.453125 C 8.613281 -9.484375 8.695312 -9.5 8.78125 -9.5 C 8.875 -9.5 8.953125 -9.484375 9.015625 -9.453125 C 9.078125 -9.429688 9.109375 -9.40625 9.109375 -9.375 C 9.023438 -8.96875 8.863281 -8.570312 8.625 -8.1875 C 8.382812 -7.800781 8.09375 -7.445312 7.75 -7.125 C 7.40625 -6.8125 7.019531 -6.539062 6.59375 -6.3125 C 6.175781 -6.09375 5.742188 -5.9375 5.296875 -5.84375 C 4.847656 -5.757812 4.398438 -5.75 3.953125 -5.8125 C 3.503906 -5.882812 3.097656 -6.0625 2.734375 -6.34375 L 3.46875 -6.34375 C 3.28125 -5.8125 3.066406 -5.285156 2.828125 -4.765625 C 2.597656 -4.253906 2.363281 -3.742188 2.125 -3.234375 C 1.882812 -2.722656 1.644531 -2.207031 1.40625 -1.6875 C 1.164062 -1.175781 0.953125 -0.65625 0.765625 -0.125 C 0.765625 -0.0703125 0.734375 -0.046875 0.671875 -0.046875 C 0.609375 -0.046875 0.535156 -0.0507812 0.453125 -0.0625 C 0.367188 -0.0703125 0.269531 -0.09375 0.15625 -0.125 C 0.457031 -1.269531 0.878906 -2.382812 1.421875 -3.46875 C 1.960938 -4.550781 2.644531 -5.507812 3.46875 -6.34375 Z M 3.46875 -6.34375 "/></g></g></g><g fill="#9f1581" fill-opacity="1"><g transform="translate(153.684053, 19.435323)"><g><path d="M 4.328125 -6.578125 C 4.378906 -6.578125 4.425781 -6.546875 4.46875 -6.484375 C 4.507812 -6.421875 4.53125 -6.351562 4.53125 -6.28125 C 4.539062 -6.21875 4.523438 -6.160156 4.484375 -6.109375 C 4.453125 -6.066406 4.398438 -6.066406 4.328125 -6.109375 C 4.023438 -6.148438 3.738281 -6.082031 3.46875 -5.90625 C 3.195312 -5.738281 2.972656 -5.566406 2.796875 -5.390625 C 2.441406 -5.097656 2.144531 -4.78125 1.90625 -4.4375 C 1.664062 -4.101562 1.453125 -3.757812 1.265625 -3.40625 C 1.179688 -3.257812 1.09375 -3.097656 1 -2.921875 C 0.90625 -2.742188 0.820312 -2.566406 0.75 -2.390625 C 0.675781 -2.210938 0.617188 -2.03125 0.578125 -1.84375 C 0.546875 -1.65625 0.539062 -1.46875 0.5625 -1.28125 C 0.59375 -1.082031 0.65625 -0.925781 0.75 -0.8125 C 0.851562 -0.707031 0.96875 -0.640625 1.09375 -0.609375 C 1.21875 -0.585938 1.359375 -0.59375 1.515625 -0.625 C 1.671875 -0.65625 1.820312 -0.71875 1.96875 -0.8125 C 2.382812 -0.988281 2.769531 -1.21875 3.125 -1.5 C 3.488281 -1.789062 3.847656 -2.113281 4.203125 -2.46875 C 4.429688 -2.757812 4.675781 -3.050781 4.9375 -3.34375 C 5.195312 -3.632812 5.390625 -3.925781 5.515625 -4.21875 C 5.585938 -4.382812 5.65625 -4.578125 5.71875 -4.796875 C 5.78125 -5.023438 5.800781 -5.234375 5.78125 -5.421875 C 5.769531 -5.617188 5.707031 -5.78125 5.59375 -5.90625 C 5.476562 -6.039062 5.289062 -6.109375 5.03125 -6.109375 C 4.613281 -6.109375 4.207031 -6.007812 3.8125 -5.8125 C 3.425781 -5.613281 3.085938 -5.398438 2.796875 -5.171875 C 2.742188 -5.097656 2.679688 -5.070312 2.609375 -5.09375 C 2.546875 -5.113281 2.488281 -5.15625 2.4375 -5.21875 C 2.382812 -5.28125 2.34375 -5.347656 2.3125 -5.421875 C 2.289062 -5.503906 2.296875 -5.570312 2.328125 -5.625 C 2.679688 -5.863281 3.035156 -6.082031 3.390625 -6.28125 C 3.753906 -6.476562 4.144531 -6.578125 4.5625 -6.578125 C 4.914062 -6.628906 5.242188 -6.585938 5.546875 -6.453125 C 5.859375 -6.328125 6.078125 -6.09375 6.203125 -5.75 C 6.265625 -5.539062 6.285156 -5.328125 6.265625 -5.109375 C 6.253906 -4.890625 6.222656 -4.675781 6.171875 -4.46875 C 6.117188 -4.269531 6.039062 -4.078125 5.9375 -3.890625 C 5.832031 -3.710938 5.722656 -3.550781 5.609375 -3.40625 C 5.316406 -2.988281 5 -2.582031 4.65625 -2.1875 C 4.320312 -1.800781 3.976562 -1.460938 3.625 -1.171875 C 3.257812 -0.878906 2.878906 -0.613281 2.484375 -0.375 C 2.097656 -0.144531 1.691406 -0.0625 1.265625 -0.125 C 0.953125 -0.15625 0.707031 -0.242188 0.53125 -0.390625 C 0.363281 -0.535156 0.242188 -0.710938 0.171875 -0.921875 C 0.109375 -1.128906 0.0859375 -1.359375 0.109375 -1.609375 C 0.140625 -1.867188 0.1875 -2.128906 0.25 -2.390625 C 0.320312 -2.648438 0.40625 -2.894531 0.5 -3.125 C 0.601562 -3.351562 0.707031 -3.5625 0.8125 -3.75 C 1.039062 -4.164062 1.300781 -4.566406 1.59375 -4.953125 C 1.882812 -5.347656 2.207031 -5.691406 2.5625 -5.984375 C 2.675781 -6.066406 2.800781 -6.15625 2.9375 -6.25 C 3.070312 -6.34375 3.210938 -6.421875 3.359375 -6.484375 C 3.503906 -6.554688 3.65625 -6.601562 3.8125 -6.625 C 3.976562 -6.644531 4.148438 -6.628906 4.328125 -6.578125 Z M 4.328125 -6.578125 "/></g></g></g><g fill="#9f1581" fill-opacity="1"><g transform="translate(159.769621, 19.435323)"><g><path d="M 0.484375 -3.34375 C 0.484375 -3.269531 0.445312 -3.226562 0.375 -3.21875 C 0.3125 -3.207031 0.238281 -3.210938 0.15625 -3.234375 C 0.0507812 -3.253906 -0.0546875 -3.289062 -0.171875 -3.34375 C -0.0976562 -3.601562 0 -3.863281 0.125 -4.125 C 0.25 -4.394531 0.390625 -4.648438 0.546875 -4.890625 C 0.703125 -5.140625 0.875 -5.375 1.0625 -5.59375 C 1.257812 -5.820312 1.453125 -6.015625 1.640625 -6.171875 C 1.734375 -6.273438 1.875 -6.375 2.0625 -6.46875 C 2.257812 -6.5625 2.460938 -6.625 2.671875 -6.65625 C 2.878906 -6.6875 3.078125 -6.671875 3.265625 -6.609375 C 3.453125 -6.546875 3.597656 -6.398438 3.703125 -6.171875 C 3.765625 -5.972656 3.769531 -5.753906 3.71875 -5.515625 C 3.664062 -5.273438 3.585938 -5.023438 3.484375 -4.765625 C 3.378906 -4.515625 3.257812 -4.273438 3.125 -4.046875 C 3 -3.828125 2.890625 -3.632812 2.796875 -3.46875 C 2.660156 -3.25 2.519531 -2.992188 2.375 -2.703125 C 2.226562 -2.421875 2.101562 -2.132812 2 -1.84375 C 1.894531 -1.550781 1.828125 -1.253906 1.796875 -0.953125 C 1.765625 -0.660156 1.800781 -0.390625 1.90625 -0.140625 C 1.832031 -0.140625 1.734375 -0.144531 1.609375 -0.15625 C 1.492188 -0.164062 1.375 -0.195312 1.25 -0.25 C 1.757812 -0.476562 2.222656 -0.789062 2.640625 -1.1875 C 3.054688 -1.582031 3.421875 -2.023438 3.734375 -2.515625 C 4.046875 -3.003906 4.304688 -3.519531 4.515625 -4.0625 C 4.722656 -4.601562 4.878906 -5.132812 4.984375 -5.65625 C 4.984375 -5.695312 5.015625 -5.71875 5.078125 -5.71875 C 5.148438 -5.71875 5.222656 -5.707031 5.296875 -5.6875 C 5.378906 -5.664062 5.453125 -5.640625 5.515625 -5.609375 C 5.585938 -5.585938 5.625 -5.5625 5.625 -5.53125 C 5.625 -5.40625 5.617188 -5.316406 5.609375 -5.265625 C 5.597656 -5.222656 5.5625 -5.132812 5.5 -5 C 5.5 -4.96875 5.460938 -4.953125 5.390625 -4.953125 C 5.328125 -4.953125 5.253906 -4.957031 5.171875 -4.96875 C 5.085938 -4.988281 5.007812 -5.015625 4.9375 -5.046875 C 4.875 -5.078125 4.84375 -5.109375 4.84375 -5.140625 C 4.914062 -5.203125 4.957031 -5.269531 4.96875 -5.34375 C 4.976562 -5.425781 4.984375 -5.53125 4.984375 -5.65625 C 5.109375 -5.65625 5.210938 -5.632812 5.296875 -5.59375 C 5.378906 -5.550781 5.488281 -5.53125 5.625 -5.53125 C 5.488281 -5.019531 5.3125 -4.488281 5.09375 -3.9375 C 4.875 -3.394531 4.601562 -2.875 4.28125 -2.375 C 3.96875 -1.875 3.613281 -1.414062 3.21875 -1 C 2.820312 -0.582031 2.382812 -0.25 1.90625 0 C 1.832031 0 1.722656 -0.00390625 1.578125 -0.015625 C 1.429688 -0.0234375 1.320312 -0.0664062 1.25 -0.140625 C 1.1875 -0.347656 1.160156 -0.570312 1.171875 -0.8125 C 1.179688 -1.050781 1.210938 -1.285156 1.265625 -1.515625 C 1.328125 -1.753906 1.398438 -1.984375 1.484375 -2.203125 C 1.578125 -2.429688 1.671875 -2.640625 1.765625 -2.828125 C 1.867188 -3.054688 1.976562 -3.273438 2.09375 -3.484375 C 2.207031 -3.691406 2.328125 -3.90625 2.453125 -4.125 C 2.578125 -4.34375 2.691406 -4.566406 2.796875 -4.796875 C 2.898438 -5.023438 2.984375 -5.269531 3.046875 -5.53125 C 3.046875 -5.5625 3.050781 -5.632812 3.0625 -5.75 C 3.070312 -5.863281 3.078125 -5.972656 3.078125 -6.078125 C 3.078125 -6.179688 3.066406 -6.269531 3.046875 -6.34375 C 3.023438 -6.425781 2.984375 -6.453125 2.921875 -6.421875 C 2.722656 -6.367188 2.53125 -6.257812 2.34375 -6.09375 C 2.164062 -5.925781 2.019531 -5.78125 1.90625 -5.65625 C 1.570312 -5.332031 1.28125 -4.960938 1.03125 -4.546875 C 0.789062 -4.128906 0.609375 -3.726562 0.484375 -3.34375 Z M 5.0625 -7.96875 C 5.019531 -7.945312 4.96875 -7.945312 4.90625 -7.96875 C 4.84375 -7.988281 4.785156 -8.015625 4.734375 -8.046875 C 4.679688 -8.085938 4.644531 -8.128906 4.625 -8.171875 C 4.613281 -8.210938 4.628906 -8.242188 4.671875 -8.265625 C 4.703125 -8.316406 4.738281 -8.335938 4.78125 -8.328125 C 4.820312 -8.328125 4.863281 -8.304688 4.90625 -8.265625 C 4.945312 -8.222656 4.984375 -8.171875 5.015625 -8.109375 C 5.046875 -8.054688 5.0625 -8.007812 5.0625 -7.96875 C 5.0625 -7.925781 5.046875 -7.875 5.015625 -7.8125 C 4.992188 -7.757812 4.984375 -7.679688 4.984375 -7.578125 C 4.929688 -7.628906 4.863281 -7.675781 4.78125 -7.71875 C 4.695312 -7.769531 4.632812 -7.828125 4.59375 -7.890625 C 4.59375 -7.929688 4.59375 -7.957031 4.59375 -7.96875 C 4.601562 -7.976562 4.628906 -8.007812 4.671875 -8.0625 L 4.671875 -8.265625 C 4.703125 -8.316406 4.742188 -8.34375 4.796875 -8.34375 C 4.847656 -8.351562 4.898438 -8.34375 4.953125 -8.3125 C 5.015625 -8.28125 5.066406 -8.242188 5.109375 -8.203125 C 5.148438 -8.160156 5.171875 -8.113281 5.171875 -8.0625 L 5.171875 -7.578125 C 5.171875 -7.535156 5.144531 -7.507812 5.09375 -7.5 C 5.039062 -7.5 4.984375 -7.507812 4.921875 -7.53125 C 4.859375 -7.5625 4.800781 -7.597656 4.75 -7.640625 C 4.695312 -7.679688 4.671875 -7.726562 4.671875 -7.78125 L 4.671875 -8.265625 C 4.773438 -8.210938 4.851562 -8.179688 4.90625 -8.171875 C 4.96875 -8.160156 5.019531 -8.125 5.0625 -8.0625 C 5.0625 -7.976562 5.054688 -7.890625 5.046875 -7.796875 C 5.046875 -7.703125 5.023438 -7.628906 4.984375 -7.578125 C 4.929688 -7.535156 4.878906 -7.523438 4.828125 -7.546875 C 4.785156 -7.578125 4.734375 -7.625 4.671875 -7.6875 C 4.628906 -7.6875 4.601562 -7.703125 4.59375 -7.734375 C 4.59375 -7.773438 4.59375 -7.828125 4.59375 -7.890625 L 4.59375 -8.0625 C 4.59375 -8.101562 4.601562 -8.132812 4.625 -8.15625 C 4.632812 -8.164062 4.648438 -8.171875 4.671875 -8.171875 L 4.671875 -8.0625 C 4.734375 -8.0625 4.785156 -8.046875 4.828125 -8.015625 C 4.878906 -7.984375 4.929688 -7.96875 4.984375 -7.96875 Z M 5.0625 -7.96875 "/></g></g></g><g fill="#9f1581" fill-opacity="1"><g transform="translate(165.634819, 19.435323)"><g><path d="M 1.171875 -2.703125 C 1.140625 -2.628906 1.085938 -2.585938 1.015625 -2.578125 C 0.953125 -2.578125 0.882812 -2.59375 0.8125 -2.625 C 0.75 -2.65625 0.695312 -2.703125 0.65625 -2.765625 C 0.613281 -2.828125 0.609375 -2.894531 0.640625 -2.96875 C 0.898438 -3.488281 1.242188 -3.976562 1.671875 -4.4375 C 2.097656 -4.894531 2.539062 -5.320312 3 -5.71875 C 3.132812 -5.8125 3.300781 -5.925781 3.5 -6.0625 C 3.695312 -6.195312 3.90625 -6.304688 4.125 -6.390625 C 4.34375 -6.484375 4.5625 -6.515625 4.78125 -6.484375 C 5.007812 -6.453125 5.203125 -6.328125 5.359375 -6.109375 C 5.492188 -5.910156 5.5625 -5.679688 5.5625 -5.421875 C 5.5625 -5.171875 5.523438 -4.914062 5.453125 -4.65625 C 5.390625 -4.394531 5.304688 -4.140625 5.203125 -3.890625 C 5.109375 -3.640625 5.03125 -3.414062 4.96875 -3.21875 C 4.769531 -2.6875 4.53125 -2.160156 4.25 -1.640625 C 3.976562 -1.128906 3.78125 -0.609375 3.65625 -0.078125 C 3.65625 0.015625 3.628906 0.0703125 3.578125 0.09375 C 3.523438 0.125 3.457031 0.125 3.375 0.09375 C 3.300781 0.0625 3.226562 0.0195312 3.15625 -0.03125 C 3.082031 -0.09375 3.03125 -0.15625 3 -0.21875 C 3 -0.34375 3.003906 -0.46875 3.015625 -0.59375 C 3.023438 -0.726562 3.066406 -0.863281 3.140625 -1 C 3.171875 -1.101562 3.226562 -1.164062 3.3125 -1.1875 C 3.394531 -1.207031 3.472656 -1.203125 3.546875 -1.171875 C 3.628906 -1.148438 3.695312 -1.109375 3.75 -1.046875 C 3.800781 -0.992188 3.8125 -0.929688 3.78125 -0.859375 C 3.726562 -0.734375 3.691406 -0.617188 3.671875 -0.515625 C 3.660156 -0.421875 3.65625 -0.273438 3.65625 -0.078125 C 3.59375 -0.148438 3.503906 -0.191406 3.390625 -0.203125 C 3.285156 -0.210938 3.203125 -0.21875 3.140625 -0.21875 C 3.203125 -0.6875 3.320312 -1.117188 3.5 -1.515625 C 3.675781 -1.910156 3.859375 -2.304688 4.046875 -2.703125 C 4.148438 -2.921875 4.253906 -3.148438 4.359375 -3.390625 C 4.460938 -3.640625 4.554688 -3.890625 4.640625 -4.140625 C 4.722656 -4.390625 4.78125 -4.632812 4.8125 -4.875 C 4.851562 -5.113281 4.859375 -5.347656 4.828125 -5.578125 C 4.828125 -5.734375 4.785156 -5.828125 4.703125 -5.859375 C 4.617188 -5.890625 4.507812 -5.882812 4.375 -5.84375 C 4.25 -5.800781 4.109375 -5.726562 3.953125 -5.625 C 3.796875 -5.519531 3.640625 -5.414062 3.484375 -5.3125 C 3.335938 -5.207031 3.207031 -5.101562 3.09375 -5 C 2.988281 -4.90625 2.910156 -4.835938 2.859375 -4.796875 C 2.535156 -4.472656 2.21875 -4.140625 1.90625 -3.796875 C 1.601562 -3.453125 1.359375 -3.085938 1.171875 -2.703125 Z M 2.609375 -2.703125 C 2.679688 -2.703125 2.789062 -2.679688 2.9375 -2.640625 C 3.09375 -2.597656 3.203125 -2.578125 3.265625 -2.578125 C 2.734375 -2.367188 2.28125 -2.054688 1.90625 -1.640625 C 1.539062 -1.234375 1.210938 -0.773438 0.921875 -0.265625 C 0.628906 0.234375 0.367188 0.753906 0.140625 1.296875 C -0.078125 1.847656 -0.300781 2.347656 -0.53125 2.796875 C -0.726562 3.222656 -0.953125 3.632812 -1.203125 4.03125 C -1.453125 4.425781 -1.734375 4.78125 -2.046875 5.09375 C -2.367188 5.414062 -2.726562 5.679688 -3.125 5.890625 C -3.53125 6.109375 -3.972656 6.253906 -4.453125 6.328125 C -4.617188 6.328125 -4.800781 6.320312 -5 6.3125 C -5.207031 6.3125 -5.398438 6.289062 -5.578125 6.25 C -5.765625 6.207031 -5.9375 6.140625 -6.09375 6.046875 C -6.25 5.960938 -6.359375 5.835938 -6.421875 5.671875 C -6.617188 5.210938 -6.65625 4.769531 -6.53125 4.34375 C -6.414062 3.925781 -6.160156 3.585938 -5.765625 3.328125 C -5.472656 3.066406 -5.128906 2.847656 -4.734375 2.671875 C -4.347656 2.492188 -3.9375 2.367188 -3.5 2.296875 C -3.070312 2.234375 -2.644531 2.226562 -2.21875 2.28125 C -1.800781 2.34375 -1.410156 2.46875 -1.046875 2.65625 C -1.117188 2.59375 -1.226562 2.578125 -1.375 2.609375 C -1.53125 2.640625 -1.644531 2.65625 -1.71875 2.65625 C -2.039062 2.46875 -2.425781 2.375 -2.875 2.375 C -3.332031 2.382812 -3.769531 2.472656 -4.1875 2.640625 C -4.613281 2.816406 -4.988281 3.0625 -5.3125 3.375 C -5.632812 3.695312 -5.832031 4.070312 -5.90625 4.5 C -5.9375 4.664062 -5.9375 4.859375 -5.90625 5.078125 C -5.882812 5.296875 -5.828125 5.5 -5.734375 5.6875 C -5.648438 5.875 -5.523438 6.023438 -5.359375 6.140625 C -5.191406 6.253906 -4.976562 6.273438 -4.71875 6.203125 C -4.320312 6.140625 -3.957031 6.015625 -3.625 5.828125 C -3.300781 5.640625 -3.007812 5.414062 -2.75 5.15625 C -2.414062 4.820312 -2.128906 4.472656 -1.890625 4.109375 C -1.660156 3.742188 -1.445312 3.363281 -1.25 2.96875 C -1.050781 2.582031 -0.863281 2.195312 -0.6875 1.8125 C -0.507812 1.425781 -0.328125 1.050781 -0.140625 0.6875 C -0.00390625 0.363281 0.144531 0.0351562 0.3125 -0.296875 C 0.476562 -0.628906 0.671875 -0.945312 0.890625 -1.25 C 1.109375 -1.550781 1.359375 -1.828125 1.640625 -2.078125 C 1.921875 -2.328125 2.242188 -2.535156 2.609375 -2.703125 Z M 2.609375 -2.703125 "/></g></g></g><g fill="#9f1581" fill-opacity="1"><g transform="translate(171.432207, 19.435323)"><g><path d="M 4.328125 -6.578125 C 4.378906 -6.578125 4.425781 -6.546875 4.46875 -6.484375 C 4.507812 -6.421875 4.53125 -6.351562 4.53125 -6.28125 C 4.539062 -6.21875 4.523438 -6.160156 4.484375 -6.109375 C 4.453125 -6.066406 4.398438 -6.066406 4.328125 -6.109375 C 4.023438 -6.148438 3.738281 -6.082031 3.46875 -5.90625 C 3.195312 -5.738281 2.972656 -5.566406 2.796875 -5.390625 C 2.441406 -5.097656 2.144531 -4.78125 1.90625 -4.4375 C 1.664062 -4.101562 1.453125 -3.757812 1.265625 -3.40625 C 1.179688 -3.257812 1.09375 -3.097656 1 -2.921875 C 0.90625 -2.742188 0.820312 -2.566406 0.75 -2.390625 C 0.675781 -2.210938 0.617188 -2.03125 0.578125 -1.84375 C 0.546875 -1.65625 0.539062 -1.46875 0.5625 -1.28125 C 0.59375 -1.082031 0.65625 -0.925781 0.75 -0.8125 C 0.851562 -0.707031 0.96875 -0.640625 1.09375 -0.609375 C 1.21875 -0.585938 1.359375 -0.59375 1.515625 -0.625 C 1.671875 -0.65625 1.820312 -0.71875 1.96875 -0.8125 C 2.382812 -0.988281 2.769531 -1.21875 3.125 -1.5 C 3.488281 -1.789062 3.847656 -2.113281 4.203125 -2.46875 C 4.429688 -2.757812 4.675781 -3.050781 4.9375 -3.34375 C 5.195312 -3.632812 5.390625 -3.925781 5.515625 -4.21875 C 5.585938 -4.382812 5.65625 -4.578125 5.71875 -4.796875 C 5.78125 -5.023438 5.800781 -5.234375 5.78125 -5.421875 C 5.769531 -5.617188 5.707031 -5.78125 5.59375 -5.90625 C 5.476562 -6.039062 5.289062 -6.109375 5.03125 -6.109375 C 4.613281 -6.109375 4.207031 -6.007812 3.8125 -5.8125 C 3.425781 -5.613281 3.085938 -5.398438 2.796875 -5.171875 C 2.742188 -5.097656 2.679688 -5.070312 2.609375 -5.09375 C 2.546875 -5.113281 2.488281 -5.15625 2.4375 -5.21875 C 2.382812 -5.28125 2.34375 -5.347656 2.3125 -5.421875 C 2.289062 -5.503906 2.296875 -5.570312 2.328125 -5.625 C 2.679688 -5.863281 3.035156 -6.082031 3.390625 -6.28125 C 3.753906 -6.476562 4.144531 -6.578125 4.5625 -6.578125 C 4.914062 -6.628906 5.242188 -6.585938 5.546875 -6.453125 C 5.859375 -6.328125 6.078125 -6.09375 6.203125 -5.75 C 6.265625 -5.539062 6.285156 -5.328125 6.265625 -5.109375 C 6.253906 -4.890625 6.222656 -4.675781 6.171875 -4.46875 C 6.117188 -4.269531 6.039062 -4.078125 5.9375 -3.890625 C 5.832031 -3.710938 5.722656 -3.550781 5.609375 -3.40625 C 5.316406 -2.988281 5 -2.582031 4.65625 -2.1875 C 4.320312 -1.800781 3.976562 -1.460938 3.625 -1.171875 C 3.257812 -0.878906 2.878906 -0.613281 2.484375 -0.375 C 2.097656 -0.144531 1.691406 -0.0625 1.265625 -0.125 C 0.953125 -0.15625 0.707031 -0.242188 0.53125 -0.390625 C 0.363281 -0.535156 0.242188 -0.710938 0.171875 -0.921875 C 0.109375 -1.128906 0.0859375 -1.359375 0.109375 -1.609375 C 0.140625 -1.867188 0.1875 -2.128906 0.25 -2.390625 C 0.320312 -2.648438 0.40625 -2.894531 0.5 -3.125 C 0.601562 -3.351562 0.707031 -3.5625 0.8125 -3.75 C 1.039062 -4.164062 1.300781 -4.566406 1.59375 -4.953125 C 1.882812 -5.347656 2.207031 -5.691406 2.5625 -5.984375 C 2.675781 -6.066406 2.800781 -6.15625 2.9375 -6.25 C 3.070312 -6.34375 3.210938 -6.421875 3.359375 -6.484375 C 3.503906 -6.554688 3.65625 -6.601562 3.8125 -6.625 C 3.976562 -6.644531 4.148438 -6.628906 4.328125 -6.578125 Z M 4.328125 -6.578125 "/></g></g></g><g fill="#9f1581" fill-opacity="1"><g transform="translate(177.517774, 19.435323)"><g><path d="M 0.484375 -3.34375 C 0.484375 -3.269531 0.445312 -3.226562 0.375 -3.21875 C 0.3125 -3.207031 0.238281 -3.210938 0.15625 -3.234375 C 0.0507812 -3.253906 -0.0546875 -3.289062 -0.171875 -3.34375 C -0.0976562 -3.601562 0 -3.863281 0.125 -4.125 C 0.25 -4.394531 0.390625 -4.648438 0.546875 -4.890625 C 0.703125 -5.140625 0.875 -5.375 1.0625 -5.59375 C 1.257812 -5.820312 1.453125 -6.015625 1.640625 -6.171875 C 1.734375 -6.273438 1.875 -6.375 2.0625 -6.46875 C 2.257812 -6.5625 2.460938 -6.625 2.671875 -6.65625 C 2.878906 -6.6875 3.078125 -6.671875 3.265625 -6.609375 C 3.453125 -6.546875 3.597656 -6.398438 3.703125 -6.171875 C 3.765625 -5.972656 3.769531 -5.753906 3.71875 -5.515625 C 3.664062 -5.273438 3.585938 -5.023438 3.484375 -4.765625 C 3.378906 -4.515625 3.257812 -4.273438 3.125 -4.046875 C 3 -3.828125 2.890625 -3.632812 2.796875 -3.46875 C 2.660156 -3.25 2.519531 -2.992188 2.375 -2.703125 C 2.226562 -2.421875 2.101562 -2.132812 2 -1.84375 C 1.894531 -1.550781 1.828125 -1.253906 1.796875 -0.953125 C 1.765625 -0.660156 1.800781 -0.390625 1.90625 -0.140625 C 1.832031 -0.140625 1.734375 -0.144531 1.609375 -0.15625 C 1.492188 -0.164062 1.375 -0.195312 1.25 -0.25 C 1.757812 -0.476562 2.222656 -0.789062 2.640625 -1.1875 C 3.054688 -1.582031 3.421875 -2.023438 3.734375 -2.515625 C 4.046875 -3.003906 4.304688 -3.519531 4.515625 -4.0625 C 4.722656 -4.601562 4.878906 -5.132812 4.984375 -5.65625 C 4.984375 -5.695312 5.015625 -5.71875 5.078125 -5.71875 C 5.148438 -5.71875 5.222656 -5.707031 5.296875 -5.6875 C 5.378906 -5.664062 5.453125 -5.640625 5.515625 -5.609375 C 5.585938 -5.585938 5.625 -5.5625 5.625 -5.53125 C 5.625 -5.40625 5.617188 -5.316406 5.609375 -5.265625 C 5.597656 -5.222656 5.5625 -5.132812 5.5 -5 C 5.5 -4.96875 5.460938 -4.953125 5.390625 -4.953125 C 5.328125 -4.953125 5.253906 -4.957031 5.171875 -4.96875 C 5.085938 -4.988281 5.007812 -5.015625 4.9375 -5.046875 C 4.875 -5.078125 4.84375 -5.109375 4.84375 -5.140625 C 4.914062 -5.203125 4.957031 -5.269531 4.96875 -5.34375 C 4.976562 -5.425781 4.984375 -5.53125 4.984375 -5.65625 C 5.109375 -5.65625 5.210938 -5.632812 5.296875 -5.59375 C 5.378906 -5.550781 5.488281 -5.53125 5.625 -5.53125 C 5.488281 -5.019531 5.3125 -4.488281 5.09375 -3.9375 C 4.875 -3.394531 4.601562 -2.875 4.28125 -2.375 C 3.96875 -1.875 3.613281 -1.414062 3.21875 -1 C 2.820312 -0.582031 2.382812 -0.25 1.90625 0 C 1.832031 0 1.722656 -0.00390625 1.578125 -0.015625 C 1.429688 -0.0234375 1.320312 -0.0664062 1.25 -0.140625 C 1.1875 -0.347656 1.160156 -0.570312 1.171875 -0.8125 C 1.179688 -1.050781 1.210938 -1.285156 1.265625 -1.515625 C 1.328125 -1.753906 1.398438 -1.984375 1.484375 -2.203125 C 1.578125 -2.429688 1.671875 -2.640625 1.765625 -2.828125 C 1.867188 -3.054688 1.976562 -3.273438 2.09375 -3.484375 C 2.207031 -3.691406 2.328125 -3.90625 2.453125 -4.125 C 2.578125 -4.34375 2.691406 -4.566406 2.796875 -4.796875 C 2.898438 -5.023438 2.984375 -5.269531 3.046875 -5.53125 C 3.046875 -5.5625 3.050781 -5.632812 3.0625 -5.75 C 3.070312 -5.863281 3.078125 -5.972656 3.078125 -6.078125 C 3.078125 -6.179688 3.066406 -6.269531 3.046875 -6.34375 C 3.023438 -6.425781 2.984375 -6.453125 2.921875 -6.421875 C 2.722656 -6.367188 2.53125 -6.257812 2.34375 -6.09375 C 2.164062 -5.925781 2.019531 -5.78125 1.90625 -5.65625 C 1.570312 -5.332031 1.28125 -4.960938 1.03125 -4.546875 C 0.789062 -4.128906 0.609375 -3.726562 0.484375 -3.34375 Z M 0.484375 -3.34375 "/></g></g></g></svg>